<?xml version="1.0" standalone="no"?>
<!DOCTYPE svg PUBLIC "-//W3C//DTD SVG 20010904//EN"
 "http://www.w3.org/TR/2001/REC-SVG-20010904/DTD/svg10.dtd">
<svg version="1.0" xmlns="http://www.w3.org/2000/svg"
 width="700.000000pt" height="986.000000pt" viewBox="0 0 700.000000 986.000000"
 preserveAspectRatio="xMidYMid meet">

<g transform="translate(0.000000,986.000000) scale(0.100000,-0.100000)"
fill="#000000" stroke="none">
<path d="M6022 7993 c5 -20 3 -21 -22 -16 -17 3 -55 -4 -92 -16 -43 -14 -78
-19 -111 -16 -28 3 -46 1 -42 -4 3 -5 1 -12 -4 -15 -13 -9 -42 4 -35 16 3 5
-11 2 -31 -6 -21 -9 -39 -16 -41 -16 -2 0 -3 -6 -1 -12 2 -14 -16 -15 -48 -3
-11 5 -17 4 -12 0 10 -11 -49 -36 -68 -29 -8 4 -15 2 -15 -4 0 -5 -10 -12 -22
-15 -13 -3 -54 -15 -93 -26 -38 -12 -104 -28 -145 -36 -41 -7 -104 -21 -140
-30 -36 -9 -72 -18 -80 -20 -8 -2 -78 -20 -155 -40 -77 -21 -158 -42 -180 -47
-84 -19 -112 -26 -170 -41 -34 -9 -77 -15 -97 -14 -20 2 -36 -1 -35 -6 1 -5
-9 -13 -23 -17 -115 -36 -170 -50 -200 -54 -19 -2 -48 -9 -65 -16 -16 -7 -46
-16 -65 -20 -78 -18 -218 -52 -260 -63 -25 -6 -47 -12 -50 -13 -3 0 -23 -4
-45 -9 -22 -5 -43 -9 -47 -10 -3 0 -10 -3 -14 -7 -12 -13 -52 -9 -57 5 -3 7
-6 5 -6 -5 -1 -10 -7 -18 -13 -19 -7 0 -20 -2 -28 -4 -43 -8 -98 -18 -123 -20
-15 -2 -33 -7 -40 -13 -10 -8 -82 -26 -307 -79 -14 -3 -29 -8 -35 -9 -5 -2
-41 -10 -80 -19 -72 -15 -181 -41 -295 -70 -104 -26 -321 -75 -350 -80 -8 -1
-22 -5 -30 -8 -24 -8 -172 -45 -205 -51 -16 -2 -132 -31 -258 -63 -198 -50
-230 -56 -249 -44 -16 10 -22 10 -28 0 -5 -7 -19 -13 -32 -14 -12 -1 -22 -7
-21 -13 2 -6 -4 -9 -12 -6 -8 4 -15 2 -15 -4 0 -9 -102 -39 -166 -49 -75 -11
-119 -30 -120 -52 -1 -11 3 -21 7 -21 5 0 9 5 9 11 0 12 59 10 77 -4 7 -5 14
-1 18 12 7 22 64 43 100 37 11 -2 28 3 39 10 16 11 23 10 45 -4 14 -9 32 -24
39 -32 8 -8 11 -10 8 -4 -3 7 1 14 8 17 8 3 17 1 19 -6 3 -7 8 -4 12 8 17 49
30 65 59 71 17 4 34 7 39 6 4 -1 22 4 40 11 53 23 107 30 107 15 1 -8 7 -5 16
7 10 14 26 19 54 19 22 -1 40 3 40 8 0 5 5 6 10 3 6 -4 17 -2 25 5 10 9 15 7
20 -10 8 -25 25 -17 25 13 1 22 1 22 15 3 12 -16 15 -17 15 -4 0 14 19 28 37
28 3 0 2 -12 -1 -27 -5 -20 -4 -24 3 -14 5 8 19 16 32 18 12 2 28 8 34 13 6 5
21 8 34 5 16 -3 25 2 31 18 5 12 9 18 10 12 0 -5 5 -3 10 5 6 10 10 11 10 3 0
-19 37 -15 52 5 18 25 49 36 60 20 6 -10 8 -10 8 0 0 6 9 12 19 12 11 0 21 5
23 10 3 9 52 20 138 34 8 1 34 8 58 16 26 8 46 10 50 4 10 -13 40 -13 38 0 -2
21 19 19 30 -3 11 -20 11 -20 25 7 18 35 28 42 62 42 17 0 27 -5 27 -15 0 -8
5 -15 10 -15 6 0 10 5 10 12 0 6 3 8 7 4 4 -3 13 4 20 16 11 22 12 22 13 3 l1
-20 9 20 c8 18 9 18 10 -5 0 -21 2 -23 13 -10 12 16 64 44 82 45 6 0 17 6 25
14 13 13 15 12 18 -9 l4 -23 11 24 c7 13 25 26 42 30 17 4 59 15 94 24 48 13
65 15 71 5 5 -9 9 -8 13 3 8 21 57 28 58 8 0 -11 3 -8 9 7 9 22 21 28 34 15
10 -10 46 -11 46 -1 0 5 5 6 11 3 6 -4 17 1 24 11 11 15 17 17 33 8 12 -8 24
-9 35 -2 13 7 17 5 17 -9 0 -14 2 -15 9 -4 7 11 9 11 14 0 3 -8 6 -2 6 12 1
35 11 42 32 23 16 -14 19 -14 33 9 17 25 113 56 135 43 6 -4 11 -3 11 3 0 18
51 26 61 10 7 -11 9 -11 9 3 0 12 11 19 38 23 20 4 51 11 67 15 92 27 167 42
179 37 8 -3 16 -2 18 3 2 5 19 12 38 15 19 3 47 10 63 16 19 8 31 8 40 0 10
-8 17 -7 26 2 9 9 13 7 17 -11 8 -28 24 -19 24 14 0 27 26 32 61 14 14 -8 19
-7 19 1 0 9 3 9 14 0 19 -16 41 -5 56 27 7 15 14 22 17 16 2 -7 13 -10 23 -7
11 3 20 0 20 -6 0 -5 7 -8 15 -5 8 4 15 13 15 20 0 20 27 29 45 14 10 -8 15
-9 15 -2 0 6 9 10 20 9 11 -1 20 -5 20 -10 0 -4 5 -5 10 -2 6 3 10 0 10 -7 0
-7 6 -2 13 12 7 14 20 24 29 22 9 -1 19 6 23 15 6 17 7 17 20 -1 13 -17 15
-18 21 -2 4 11 13 15 25 11 13 -5 19 -1 19 10 0 8 12 21 26 27 22 10 28 10 39
-5 10 -14 14 -15 18 -5 6 14 9 -5 9 -60 1 -38 11 -34 15 6 9 85 12 89 51 95
20 3 47 9 59 12 15 5 22 2 26 -12 4 -16 6 -16 12 5 5 14 15 22 29 22 13 0 26
3 30 8 4 4 11 7 14 8 4 0 20 4 36 9 23 6 32 4 43 -10 11 -17 13 -17 13 -2 0
16 33 41 42 32 3 -3 21 2 41 10 53 22 86 19 96 -7 8 -22 9 -21 15 10 l8 32 19
-22 19 -23 6 22 c3 13 11 19 19 16 8 -2 11 -12 8 -20 -5 -12 -3 -14 6 -8 21
12 28 -11 30 -98 3 -107 11 -113 11 -8 0 54 4 80 10 76 6 -4 10 -3 9 2 -4 22
2 32 16 27 11 -5 15 1 15 25 0 32 19 45 21 14 0 -12 5 -8 14 12 8 17 14 24 15
17 0 -10 4 -10 16 2 21 22 33 20 43 -6 9 -23 9 -23 16 4 9 37 31 54 48 39 8
-6 17 -8 20 -4 4 3 7 1 7 -5 0 -7 5 -12 10 -12 6 0 10 6 10 14 0 24 26 38 40
21 18 -21 30 -19 30 6 0 18 2 19 15 9 10 -9 15 -9 15 -1 0 6 7 11 15 11 16 0
56 20 65 32 3 3 6 -13 7 -35 1 -23 4 -55 7 -72 4 -16 8 -93 11 -170 6 -155 25
-201 25 -60 0 81 1 86 17 74 13 -11 13 -6 -4 21 -17 28 -23 59 -28 157 -6 92
-11 126 -23 135 -13 11 -15 10 -10 -9z m-317 -73 c3 -5 1 -10 -4 -10 -6 0 -11
5 -11 10 0 6 2 10 4 10 3 0 8 -4 11 -10z"/>
<path d="M2986 7905 c-3 -8 -1 -15 4 -15 6 0 10 7 10 15 0 8 -2 15 -4 15 -2 0
-6 -7 -10 -15z"/>
<path d="M5605 7730 c-3 -5 -1 -10 4 -10 6 0 11 5 11 10 0 6 -2 10 -4 10 -3 0
-8 -4 -11 -10z"/>
<path d="M6141 7605 c0 -14 28 -50 34 -43 3 3 -3 16 -14 29 -11 13 -20 20 -20
14z"/>
<path d="M5559 7558 c-2 -45 1 -111 6 -116 3 -3 5 27 5 66 0 40 -2 72 -5 72
-3 0 -6 -10 -6 -22z"/>
<path d="M5600 7571 c0 -6 5 -13 10 -16 6 -3 10 1 10 9 0 9 -4 16 -10 16 -5 0
-10 -4 -10 -9z"/>
<path d="M6190 7499 c-84 -16 -107 -20 -142 -30 -37 -9 -38 -11 -38 -54 0 -25
4 -45 9 -45 4 0 6 12 3 26 -4 24 -3 26 34 23 22 -2 44 0 49 3 6 3 34 11 63 18
52 12 67 25 60 52 -2 10 -13 12 -38 7z"/>
<path d="M1315 7400 c3 -5 1 -10 -6 -10 -8 0 -8 -4 -2 -12 6 -7 9 -21 8 -30
-2 -10 1 -18 6 -18 5 0 9 18 9 40 0 22 -5 40 -11 40 -5 0 -7 -4 -4 -10z"/>
<path d="M6014 7285 c3 -44 8 -231 11 -415 3 -184 8 -364 10 -400 3 -36 9
-274 15 -530 26 -1236 29 -1357 41 -1605 18 -365 30 -736 34 -1065 2 -179 9
-547 15 -819 6 -271 8 -496 5 -499 -9 -9 -79 -1 -86 9 -3 6 -11 3 -19 -6 -11
-13 -9 -15 11 -17 13 0 30 -1 37 -1 22 1 37 -49 37 -119 0 -38 2 -68 5 -68 3
0 6 -9 7 -20 1 -13 -2 -18 -10 -13 -7 4 -6 0 2 -10 11 -14 11 -17 0 -17 -8 0
-5 -6 7 -14 18 -14 18 -15 1 -22 -15 -5 -16 -9 -5 -15 10 -7 9 -9 -4 -9 -11 0
-15 -5 -12 -15 4 -8 10 -12 15 -9 5 3 9 -2 9 -10 0 -9 -6 -16 -12 -16 -9 0 -8
-4 2 -11 12 -9 11 -10 -5 -6 -25 5 -32 -27 -12 -53 11 -13 10 -13 -5 -1 -10 7
-18 10 -18 6 0 -4 -8 -1 -17 6 -10 8 -14 9 -10 2 4 -6 2 -15 -5 -19 -7 -4 -10
-4 -6 1 16 17 -12 34 -38 24 -19 -7 -23 -6 -18 4 6 9 5 9 -8 0 -8 -7 -18 -10
-21 -6 -4 3 -7 1 -7 -5 0 -7 -9 -12 -20 -12 -11 0 -20 7 -20 15 0 8 4 15 10
15 5 0 9 6 7 12 -1 7 13 19 31 27 18 8 31 20 28 27 -7 17 22 26 45 14 13 -8
19 -7 19 0 0 6 4 9 8 6 5 -3 9 1 9 9 0 10 -5 11 -19 4 -12 -7 -25 -6 -40 2
-20 11 -20 13 -5 24 9 7 17 16 17 20 0 4 -7 2 -15 -5 -12 -10 -15 -9 -16 4 -1
9 -2 22 -3 29 -1 6 -13 11 -26 10 l-25 -2 23 11 c12 6 22 15 22 21 0 5 7 4 15
-3 16 -13 35 -6 35 14 0 6 6 18 12 24 15 15 20 85 7 76 -5 -3 -9 0 -9 5 0 6 5
11 11 11 5 0 8 4 5 9 -3 4 7 6 22 3 24 -5 26 -3 14 11 -10 12 -26 15 -53 13
-21 -2 -42 0 -45 5 -3 5 -10 7 -15 3 -6 -3 -9 2 -7 12 2 11 -4 20 -14 22 -11
2 -18 -3 -18 -12 0 -9 5 -16 10 -16 6 0 10 -4 10 -8 0 -5 -7 -9 -15 -9 -8 0
-13 2 -11 5 2 2 0 18 -6 34 -9 26 -8 33 7 45 11 7 13 13 6 13 -7 0 -9 5 -6 10
4 6 2 16 -4 23 -10 12 -26 371 -25 575 l0 102 32 30 c19 17 37 30 43 30 23 0
-5 74 -34 89 -21 11 -21 11 3 6 l25 -4 -26 11 c-29 12 -27 2 -29 173 0 38 -4
55 -9 46 -5 -7 -11 -9 -14 -4 -7 10 -15 225 -22 568 -3 138 -8 316 -11 397 -4
103 -2 153 6 168 7 14 8 25 3 29 -11 6 -23 428 -23 773 l0 206 -37 -4 c-21 -2
-184 -23 -363 -45 -314 -39 -558 -68 -745 -90 -49 -5 -221 -27 -380 -47 l-291
-37 27 -50 c35 -65 36 -89 2 -50 -25 29 -25 29 -9 3 9 -16 22 -38 30 -50 11
-18 14 -57 11 -173 -1 -82 -3 -159 -4 -170 0 -11 1 -37 3 -57 3 -31 1 -36 -13
-30 -14 5 -14 3 2 -21 9 -15 15 -27 11 -27 -4 0 -1 -6 5 -14 8 -10 9 -21 1
-42 -8 -20 -8 -35 0 -55 8 -18 10 -81 7 -188 -3 -98 -2 -159 4 -155 5 3 7 9 4
14 -10 16 13 20 25 5 11 -13 9 -20 -7 -38 -26 -29 -37 -58 -18 -51 7 3 19 -4
25 -16 9 -18 8 -25 -7 -42 -18 -20 -18 -20 -24 8 -4 16 -6 -74 -6 -201 0 -126
2 -217 4 -202 4 28 5 28 24 12 10 -10 16 -22 13 -26 -3 -5 7 -9 21 -9 14 0 24
4 21 9 -8 12 41 54 53 46 6 -3 11 -17 11 -31 0 -20 5 -24 30 -24 42 0 82 20
70 35 -7 9 -3 12 18 10 41 -3 42 -4 42 -24 0 -14 5 -18 19 -14 20 5 36 31 26
41 -3 3 -5 0 -5 -6 0 -17 -25 -15 -40 3 -10 12 -9 15 8 15 47 0 82 -13 82 -30
0 -21 43 -32 74 -20 12 5 17 9 12 9 -14 1 36 51 51 51 8 0 13 -12 13 -30 0
-17 6 -31 13 -32 6 0 17 -2 22 -3 6 -1 82 -5 170 -9 88 -4 174 -10 190 -11 17
-2 68 -7 115 -10 47 -4 88 -9 91 -11 4 -2 48 -6 99 -9 51 -3 100 -10 110 -15
10 -5 20 -7 22 -4 7 6 108 -18 108 -27 0 -4 -10 -7 -22 -6 -29 0 -349 -33
-357 -37 -3 -2 -42 -7 -85 -10 -44 -4 -94 -9 -110 -11 -155 -20 -187 -24 -366
-41 -276 -27 -350 -28 -427 -9 -37 10 -77 19 -88 20 -75 13 -183 25 -255 30
-79 5 -108 7 -230 20 -25 2 -88 7 -140 10 -52 3 -122 8 -155 10 -33 3 -107 6
-165 7 -102 1 -104 2 -70 16 48 20 259 49 410 57 69 4 129 10 134 13 5 3 32 4
59 3 35 -1 47 1 42 9 -6 9 -2 9 14 1 28 -15 46 -5 29 17 -10 12 -10 14 0 8 8
-5 12 0 12 14 0 13 -4 19 -12 14 -7 -5 -8 -3 -2 7 17 27 13 65 -8 78 -17 11
-22 10 -29 -1 -7 -10 -9 -9 -9 6 0 14 5 17 23 13 12 -4 29 -2 37 3 17 11 3 13
-64 10 -32 -1 -38 1 -33 14 4 9 2 16 -3 16 -6 0 -10 -7 -10 -16 0 -11 -8 -15
-27 -12 -16 1 -31 7 -35 13 -5 6 -8 3 -8 -6 0 -13 -9 -17 -34 -17 -24 0 -36 5
-39 17 -4 14 -5 14 -6 -2 -2 -27 -61 -20 -62 8 0 14 -2 16 -6 5 -3 -8 -11 -18
-16 -22 -11 -7 -75 -3 -83 5 -7 7 16 558 23 570 3 6 2 7 -4 4 -5 -3 -94 -13
-198 -22 -103 -9 -191 -17 -194 -19 -3 -2 -64 -7 -136 -11 -191 -10 -215 -12
-385 -29 -85 -9 -158 -16 -162 -16 -4 0 -9 30 -11 68 l-3 67 -2 -67 c-1 -38
-6 -68 -11 -68 -20 0 -389 -30 -438 -35 l-52 -6 -4 58 -3 58 -2 -61 c-1 -44 2
-65 13 -74 8 -7 15 -19 15 -28 0 -8 3 -13 6 -9 8 8 44 -25 38 -35 -3 -4 0 -8
7 -8 12 0 9 -147 -7 -345 -8 -97 -8 -97 -49 -92 -19 3 -38 1 -41 -5 -3 -5 -12
-1 -19 9 -7 10 -17 15 -21 10 -4 -4 -1 -7 7 -7 11 0 11 -2 -1 -10 -20 -13 -33
-13 -25 0 4 6 -5 10 -20 10 -14 0 -24 -4 -21 -8 3 -5 -57 -7 -132 -5 -75 1
-234 0 -353 -4 l-217 -6 23 -42 c22 -38 23 -51 20 -141 -3 -54 -9 -153 -15
-219 -6 -66 -19 -235 -30 -375 -22 -288 -27 -327 -42 -336 -7 -5 -8 -2 -3 7 7
11 6 12 -7 2 -8 -7 -19 -9 -24 -5 -4 4 -2 -1 5 -10 15 -20 26 -24 15 -6 -4 6
-3 8 3 5 12 -7 6 -87 -8 -103 -6 -8 -4 -14 6 -18 8 -3 15 -11 15 -17 0 -8 -4
-8 -15 1 -8 6 -18 9 -24 6 -5 -3 -13 8 -17 26 l-8 33 -7 -30 c-5 -25 -7 -26
-8 -7 -1 19 -5 22 -23 18 -13 -3 -17 -3 -10 0 15 7 16 34 1 34 -6 0 -8 8 -5
18 4 12 -3 29 -19 46 -14 15 -23 31 -20 36 3 5 1 11 -5 15 -17 10 -12 83 6 93
21 12 31 116 14 148 -7 12 -10 34 -8 48 3 14 0 27 -6 30 -7 3 -7 5 2 5 6 1 12
11 12 22 0 17 -3 19 -14 10 -11 -9 -15 -9 -19 1 -3 7 -6 -75 -7 -182 -1 -107
-3 -204 -5 -215 -1 -11 -6 -275 -9 -586 l-6 -566 252 -6 c139 -3 440 -6 668
-7 228 0 456 -2 505 -5 217 -10 2329 -15 2315 -5 -8 5 -10 10 -4 10 5 0 16 -6
22 -12 10 -10 195 -14 837 -17 l825 -3 0 88 c2 435 1 507 -10 514 -9 6 -9 9 0
12 18 6 17 87 -1 99 -12 7 -11 9 1 9 9 0 16 10 18 26 1 14 -2 23 -6 20 -5 -3
-9 1 -9 9 0 8 4 12 9 9 5 -3 7 17 6 44 -2 28 -6 48 -10 45 -5 -2 -8 3 -8 12 0
9 5 13 10 10 6 -3 10 4 10 17 0 18 -2 20 -10 8 -5 -8 -10 -10 -10 -4 0 6 3 14
7 18 10 10 11 106 1 100 -5 -3 -8 2 -8 11 0 9 4 14 8 11 5 -3 9 1 9 9 0 8 -4
12 -9 9 -4 -3 -8 25 -9 63 -1 37 -2 86 -4 108 -2 22 -6 207 -9 410 -6 363 -10
520 -25 960 -5 149 -4 225 3 234 8 11 8 13 0 8 -8 -4 -11 8 -10 38 0 38 3 45
21 46 43 3 48 4 53 18 4 11 -4 13 -35 9 l-40 -6 -7 67 c-4 36 -9 172 -12 302
l-5 236 48 2 c26 1 52 6 58 12 7 8 -8 10 -53 7 -61 -4 -62 -4 -62 21 1 14 -2
204 -5 422 l-6 397 65 7 c42 4 66 11 66 19 0 10 -15 10 -65 3 -37 -5 -67 -8
-69 -6 -2 2 -7 153 -10 334 -4 182 -9 366 -12 411 l-4 81 81 16 c45 9 84 18
87 21 14 14 -11 15 -84 2 -43 -7 -80 -13 -81 -12 -1 0 -4 102 -7 226 -15 575
-19 676 -28 685 -6 7 -8 -18 -4 -70z m-327 -2391 c-3 -3 -12 -4 -19 -1 -8 3
-5 6 6 6 11 1 17 -2 13 -5z m-280 -30 c-3 -3 -12 -4 -19 -1 -8 3 -5 6 6 6 11
1 17 -2 13 -5z m-172 -22 c-3 -3 -11 0 -18 7 -9 10 -8 11 6 5 10 -3 15 -9 12
-12z m-148 -8 c-3 -3 -12 -4 -19 -1 -8 3 -5 6 6 6 11 1 17 -2 13 -5z m380 0
c-3 -3 -12 -4 -19 -1 -8 3 -5 6 6 6 11 1 17 -2 13 -5z m-550 -20 c-3 -3 -12
-4 -19 -1 -8 3 -5 6 6 6 11 1 17 -2 13 -5z m218 -14 c-3 -5 -12 -10 -18 -10
-7 0 -6 4 3 10 19 12 23 12 15 0z m65 1 c0 -6 -9 -9 -19 -8 -11 0 -17 5 -15 9
7 11 34 10 34 -1z m40 5 c0 -2 -7 -6 -15 -10 -8 -3 -15 -1 -15 4 0 6 7 10 15
10 8 0 15 -2 15 -4z m-195 -16 c3 -5 1 -10 -4 -10 -6 0 -11 5 -11 10 0 6 2 10
4 10 3 0 8 -4 11 -10z m42 4 c-3 -3 -12 -4 -19 -1 -8 3 -5 6 6 6 11 1 17 -2
13 -5z m403 2 c0 -2 -7 -7 -16 -10 -8 -3 -12 -2 -9 4 6 10 25 14 25 6z m-893
-12 c-3 -3 -12 -4 -19 -1 -8 3 -5 6 6 6 11 1 17 -2 13 -5z m368 -4 c-27 -12
-43 -12 -25 0 8 5 22 9 30 9 10 0 8 -3 -5 -9z m-91 -8 c2 -4 -4 -8 -14 -8 -10
0 -16 4 -14 8 3 4 9 8 14 8 5 0 11 -4 14 -8z m432 -4 c-9 -5 -23 -5 -32 0 -12
6 -7 9 16 9 23 0 28 -3 16 -9z m-539 -4 c-3 -3 -12 -4 -19 -1 -8 3 -5 6 6 6
11 1 17 -2 13 -5z m393 -4 c0 -5 -5 -10 -11 -10 -5 0 -7 5 -4 10 3 6 8 10 11
10 2 0 4 -4 4 -10z m45 0 c-27 -12 -43 -12 -25 0 8 5 22 9 30 9 10 0 8 -3 -5
-9z m-602 -17 c-7 -2 -19 -2 -25 0 -7 3 -2 5 12 5 14 0 19 -2 13 -5z m420 -3
c-2 -3 -18 -5 -35 -6 -18 -1 -25 1 -18 6 13 8 62 8 53 0z m-496 -6 c-3 -3 -12
-4 -19 -1 -8 3 -5 6 6 6 11 1 17 -2 13 -5z m410 0 c-3 -3 -12 -4 -19 -1 -8 3
-5 6 6 6 11 1 17 -2 13 -5z m373 -4 c-8 -5 -19 -10 -25 -10 -5 0 -3 5 5 10 8
5 20 10 25 10 6 0 3 -5 -5 -10z m-630 -20 c0 -11 -4 -20 -8 -20 -4 0 -8 9 -9
20 -1 11 2 20 8 20 5 0 9 -9 9 -20z m143 13 c-7 -2 -21 -2 -30 0 -10 3 -4 5
12 5 17 0 24 -2 18 -5z m417 -5 c0 -11 -22 -10 -39 1 -10 7 -7 9 12 8 15 -1
27 -5 27 -9z m-510 -2 c0 -2 -9 -6 -20 -9 -11 -3 -18 -1 -14 4 5 9 34 13 34 5z
m383 -3 c3 -5 -9 -9 -26 -10 -24 -2 -28 0 -17 7 18 12 37 13 43 3z m447 3 c0
-2 -9 -6 -20 -9 -11 -3 -18 -1 -14 4 5 9 34 13 34 5z m37 -2 c-3 -3 -12 -4
-19 -1 -8 3 -5 6 6 6 11 1 17 -2 13 -5z m-997 -11 c0 -5 -17 -9 -38 -10 -28
-1 -32 0 -17 7 25 11 55 12 55 3z m35 -3 c-3 -5 -10 -10 -16 -10 -5 0 -9 5 -9
10 0 6 7 10 16 10 8 0 12 -4 9 -10z m400 0 c-27 -12 -43 -12 -25 0 8 5 22 9
30 9 10 0 8 -3 -5 -9z m415 6 c0 -2 -9 -6 -20 -9 -11 -3 -18 -1 -14 4 5 9 34
13 34 5z m-513 -13 c-3 -2 -29 -6 -58 -9 -30 -2 -61 -7 -71 -10 -9 -3 -19 -1
-22 4 -2 4 14 9 37 11 23 1 43 3 44 5 1 1 19 2 38 3 20 1 34 -1 32 -4z m40 1
c-3 -3 -12 -4 -19 -1 -8 3 -5 6 6 6 11 1 17 -2 13 -5z m366 -1 c3 -5 -6 -9
-20 -10 -19 -1 -22 1 -12 8 17 11 26 11 32 2z m44 1 c-3 -3 -12 -4 -19 -1 -8
3 -5 6 6 6 11 1 17 -2 13 -5z m-686 -31 c-18 -8 -36 -12 -39 -9 -3 4 1 6 9 6
11 0 11 2 2 8 -8 5 2 8 25 9 l37 0 -34 -14z m66 11 c-3 -3 -12 -4 -19 -1 -8 3
-5 6 6 6 11 1 17 -2 13 -5z m-122 -15 c-3 -4 -21 -7 -40 -6 -19 1 -29 4 -23 8
15 10 69 8 63 -2z m-98 -5 c-3 -3 -12 -4 -19 -1 -8 3 -5 6 6 6 11 1 17 -2 13
-5z m828 -4 c-27 -12 -43 -12 -25 0 8 5 22 9 30 9 10 0 8 -3 -5 -9z m-650 -20
c3 -5 -3 -10 -15 -10 -12 0 -18 5 -15 10 3 6 10 10 15 10 5 0 12 -4 15 -10z
m-145 -16 c0 -2 -7 -4 -15 -4 -8 0 -15 4 -15 10 0 5 7 7 15 4 8 -4 15 -8 15
-10z m155 -24 c-27 -12 -43 -12 -25 0 8 5 22 9 30 9 10 0 8 -3 -5 -9z m52 4
c-3 -3 -12 -4 -19 -1 -8 3 -5 6 6 6 11 1 17 -2 13 -5z m-220 -20 c-3 -3 -12
-4 -19 -1 -8 3 -5 6 6 6 11 1 17 -2 13 -5z m-380 -40 c-3 -3 -12 -4 -19 -1 -8
3 -5 6 6 6 11 1 17 -2 13 -5z m-42 -163 c3 -5 2 -12 -3 -15 -5 -3 -9 1 -9 9 0
17 3 19 12 6z m16 -78 c13 -16 12 -17 -3 -4 -17 13 -22 21 -14 21 2 0 10 -8
17 -17z m-9 -22 c15 -18 15 -20 -1 -35 -16 -14 -17 -13 -19 19 -3 41 -2 41 20
16z m23 -51 c-16 -7 -16 -9 -4 -9 27 -1 34 -41 8 -41 -5 0 -7 6 -5 13 1 6 1 9
-1 5 -2 -4 -11 -4 -20 -1 -12 5 -14 3 -7 -8 14 -22 13 -37 -2 -50 -12 -9 -14
-6 -14 23 0 39 24 78 48 77 14 0 13 -2 -3 -9z m27 -99 c2 7 9 5 18 -7 9 -11
10 -15 3 -10 -8 4 -13 2 -13 -7 0 -23 -29 -42 -42 -29 -20 20 -32 13 -14 -6
15 -18 15 -20 -2 -35 -26 -23 -33 -21 -28 8 8 44 18 70 34 88 15 17 17 17 28
2 8 -11 13 -12 16 -4z m33 -62 c-3 -14 0 -19 8 -16 7 3 14 -3 14 -14 2 -25 -9
-24 -36 5 -22 23 -22 25 -4 35 10 6 19 11 20 11 1 0 0 -9 -2 -21z m40 11 c-3
-5 -12 -10 -18 -10 -7 0 -6 4 3 10 19 12 23 12 15 0z m-61 -49 c17 -19 17 -21
-8 -48 l-26 -28 -22 22 -22 23 24 25 c28 30 32 30 54 6z m62 -55 c0 -20 -3
-23 -17 -15 -29 15 -33 10 -8 -10 22 -18 22 -20 6 -26 -26 -10 -61 23 -45 42
7 9 21 12 35 8 13 -3 23 -2 22 2 -2 11 0 23 4 23 2 0 3 -11 3 -24z m-63 -53
c14 -16 14 -20 -3 -40 -22 -27 -37 -29 -62 -6 -18 16 -18 17 4 40 26 28 40 29
61 6z m51 -42 c4 -5 0 -12 -6 -15 -8 -3 -7 -5 2 -3 9 1 17 -1 18 -5 6 -20 1
-27 -15 -22 -15 5 -15 4 -3 -5 12 -8 12 -11 -4 -17 -11 -4 -25 0 -39 14 -20
21 -20 22 -2 42 19 21 40 26 49 11z m-52 -68 c18 -16 18 -17 -4 -40 -26 -28
-32 -28 -58 -6 -20 17 -20 17 2 40 26 27 35 28 60 6z m83 -3 c-3 -14 2 -20 13
-20 15 0 15 -2 2 -10 -23 -14 -48 14 -30 34 17 21 20 20 15 -4z m-20 -44 c22
-16 13 -51 -10 -42 -8 3 -14 0 -12 -6 1 -6 -4 -13 -12 -16 -9 -3 -11 0 -6 8 5
8 4 11 -2 7 -6 -4 -16 0 -23 8 -10 13 -9 19 5 35 21 24 34 25 60 6z m-121 -19
c8 -13 5 -21 -12 -37 l-22 -21 0 41 c0 43 13 50 34 17z m56 -39 c18 -22 18
-24 -2 -45 -28 -29 -41 -29 -58 2 -12 22 -11 27 5 45 23 26 33 25 55 -2z m117
15 c-6 -10 19 -34 27 -26 3 4 6 4 6 1 0 -3 -8 -12 -17 -19 -11 -10 -14 -10 -9
-1 4 6 2 12 -3 12 -6 0 -11 -9 -11 -20 0 -24 -18 -22 -43 5 -17 19 -17 20 5
37 23 18 53 25 45 11z m-56 -65 c23 -25 23 -23 3 -43 -9 -9 -13 -19 -9 -23 3
-4 12 1 19 11 17 22 39 22 60 -2 13 -14 14 -21 5 -27 -8 -4 -10 -3 -5 4 5 8 1
10 -10 5 -12 -4 -14 -8 -6 -11 10 -3 10 -7 1 -18 -16 -20 -28 -18 -55 11 -13
14 -27 25 -32 25 -5 0 -17 9 -27 20 -18 20 -18 21 5 45 28 30 28 30 51 3z
m-129 -50 l-22 -22 0 44 0 44 22 -22 22 -22 -22 -22z m223 35 c-2 -10 -4 -22
-4 -28 -1 -5 -9 -1 -18 8 -16 16 -16 19 -3 27 22 14 29 12 25 -7z m-161 -42
c17 -18 17 -21 1 -45 -21 -32 -39 -33 -59 -4 -15 20 -14 24 6 45 26 28 30 28
52 4z m64 -51 c27 -25 26 -22 3 -49 -26 -30 -26 -30 -55 -2 l-26 25 22 23 c26
28 29 28 56 3z m128 4 c10 -8 14 -13 7 -10 -6 3 -18 3 -27 0 -11 -4 -13 -11
-6 -30 11 -29 0 -31 -24 -5 -17 18 -16 20 1 40 21 25 24 25 49 5z m-252 -53
c-17 -26 -17 -26 3 -8 25 22 36 22 58 -3 18 -20 18 -21 -5 -44 -18 -20 -26
-23 -40 -13 -25 15 -40 51 -40 94 0 36 0 36 20 18 19 -17 19 -20 4 -44z m-488
22 c-6 -15 -9 -15 -16 -3 -6 9 -5 17 3 22 16 10 21 2 13 -19z m-80 5 c4 -6 10
-5 15 3 6 11 11 11 21 1 6 -6 8 -13 3 -13 -70 -8 -79 -8 -65 1 23 15 -6 13
-30 -2 -15 -10 -22 -10 -32 0 -15 15 -32 16 -22 0 4 -7 3 -8 -4 -4 -7 4 -12
11 -12 16 0 13 119 10 126 -2z m164 2 c0 -5 -2 -10 -4 -10 -3 0 -8 5 -11 10
-3 6 -1 10 4 10 6 0 11 -4 11 -10z m620 -54 c0 -1 -14 -3 -32 -4 -17 -2 -37
-7 -44 -13 -24 -19 -27 12 -4 36 l23 24 28 -20 c16 -11 29 -21 29 -23z m255
24 c18 -20 18 -21 -3 -40 -12 -12 -23 -16 -27 -10 -3 6 -15 10 -25 10 -27 0
-32 13 -14 38 19 27 45 28 69 2z m43 3 c5 -18 -23 -16 -39 3 -11 14 -10 15 11
12 13 -1 25 -9 28 -15z m-1088 -19 c0 -13 -25 -26 -34 -17 -13 14 -5 32 14 30
11 -1 20 -7 20 -13z m37 -6 c-3 -8 -6 -5 -6 6 -1 11 2 17 5 13 3 -3 4 -12 1
-19z m90 0 c-3 -8 -6 -5 -6 6 -1 11 2 17 5 13 3 -3 4 -12 1 -19z m-732 -160
c-4 -90 -8 -184 -9 -210 -3 -54 -11 -68 -29 -48 -9 10 -9 11 1 6 6 -4 12 -3
12 2 0 6 -8 13 -17 17 -17 6 -17 7 1 21 15 10 16 14 5 15 -11 0 -11 2 0 6 11
5 11 7 0 14 -12 8 -11 11 1 19 8 5 10 10 4 10 -6 0 -11 7 -11 15 0 8 4 15 9
15 5 0 6 9 3 20 -4 13 -2 20 7 20 10 0 9 3 -2 10 -8 5 -19 10 -25 10 -5 0 -4
-4 3 -9 11 -7 10 -10 -3 -15 -13 -4 -15 -15 -12 -41 3 -19 1 -35 -4 -35 -6 0
-8 24 -7 54 2 30 5 53 7 51 2 -3 12 0 21 5 24 13 32 68 11 80 -9 5 -11 10 -4
10 8 0 12 16 11 43 -1 46 9 77 24 77 7 0 8 -56 3 -162z m-41 140 c-3 -4 -9 -8
-15 -8 -5 0 -9 4 -9 8 0 5 7 9 15 9 8 0 12 -4 9 -9z m2890 -12 c-2 -13 1 -14
12 -5 12 10 13 9 8 -5 -10 -26 -39 -20 -39 9 0 14 5 23 10 21 6 -2 9 -11 9
-20z m-2099 -4 c-3 -3 -11 0 -18 7 -9 10 -8 11 6 5 10 -3 15 -9 12 -12z m-298
-6 c0 -8 -6 -12 -15 -9 -11 5 -11 7 0 14 7 5 13 9 14 9 0 0 1 -6 1 -14z m95 6
c-6 -2 -9 -8 -6 -14 5 -8 -29 5 -43 17 -2 1 12 2 30 2 17 0 26 -2 19 -5z m58
-1 c0 -6 -5 -13 -12 -17 -6 -4 -8 -3 -4 4 3 5 0 13 -6 15 -8 3 -6 6 5 6 9 1
17 -3 17 -8z m80 -6 c0 -8 -12 -12 -32 -11 -45 2 -48 24 -3 24 22 0 35 -5 35
-13z m-1718 -59 c-2 -25 -7 -46 -11 -46 -3 0 -4 25 -2 56 1 32 6 52 10 46 3
-6 5 -31 3 -56z m-357 44 c3 -6 -1 -7 -9 -4 -18 7 -21 14 -7 14 6 0 13 -4 16
-10z m1338 -15 c4 -8 2 -17 -3 -20 -6 -4 -10 3 -10 14 0 25 6 27 13 6z m2937
5 c-12 -8 -12 -10 -1 -10 8 0 12 -3 8 -6 -9 -9 -28 6 -22 17 4 5 12 9 18 9 7
0 6 -4 -3 -10z m-2280 -15 c0 -8 -5 -15 -11 -15 -5 0 -7 6 -3 13 5 8 2 8 -9
-2 -16 -13 -25 -2 -10 12 12 13 33 7 33 -8z m90 -1 c0 -8 -4 -12 -10 -9 -5 3
-10 10 -10 16 0 5 5 9 10 9 6 0 10 -7 10 -16z m2169 -8 c-2 -2 -15 -9 -29 -16
-23 -12 -24 -12 -11 3 7 10 20 17 29 17 8 0 13 -2 11 -4z m22 -30 c5 3 9 1 9
-5 0 -12 -28 -19 -53 -13 -16 4 -15 6 5 16 13 7 25 8 26 4 2 -4 8 -6 13 -2z
m-2917 -24 c-6 -4 -16 -16 -23 -27 l-11 -20 2 20 c3 21 16 35 33 35 6 0 6 -3
-1 -8z m-1017 -129 c-2 -16 -4 -3 -4 27 0 30 2 43 4 28 2 -16 2 -40 0 -55z
m3578 57 c-3 -5 -12 -10 -18 -10 -7 0 -6 4 3 10 19 12 23 12 15 0z m343 -7
c11 -21 8 -51 -7 -66 -12 -12 -45 -1 -36 12 3 5 0 13 -6 17 -9 5 -7 11 6 21
11 7 13 13 7 13 -7 0 -12 5 -12 10 0 17 39 11 48 -7z m-483 -13 c3 -5 1 -10
-4 -10 -6 0 -11 5 -11 10 0 6 2 10 4 10 3 0 8 -4 11 -10z m-3511 -33 c7 -6 6
-7 -4 -4 -8 2 -16 12 -17 23 -2 13 -1 15 4 4 3 -8 11 -19 17 -23z m1327 22 c8
-5 9 -9 4 -9 -6 0 -11 -18 -11 -40 -1 -22 3 -40 9 -40 6 0 3 -6 -6 -12 -12 -9
-14 -17 -7 -28 5 -8 10 -10 10 -5 0 6 4 4 9 -4 6 -10 32 -14 83 -16 l73 -1 3
-46 c4 -54 -4 -58 -110 -58 -48 0 -68 -4 -68 -12 0 -8 -3 -9 -8 -3 -4 6 -16
11 -27 13 -16 2 -17 1 -6 -7 8 -5 16 -20 17 -33 2 -13 1 -18 -2 -12 -9 22 -41
3 -51 -30 -10 -31 -9 -34 22 -44 17 -7 41 -12 52 -12 12 0 23 -6 25 -12 3 -9
11 -8 31 5 19 13 37 15 72 10 39 -5 45 -9 43 -27 -5 -35 -20 -44 -70 -41 -27
2 -48 1 -48 -1 0 -2 14 -11 30 -19 20 -10 103 -23 233 -35 210 -21 279 -33
297 -55 13 -16 85 -30 101 -20 6 4 -10 15 -38 25 -84 31 -217 86 -248 104 -30
17 -30 17 40 11 39 -4 75 -11 80 -17 7 -7 -5 -9 -40 -5 l-50 6 34 -15 c47 -20
110 -16 104 7 -4 14 3 17 42 17 26 1 55 4 65 7 10 3 21 1 25 -5 3 -5 18 -10
33 -9 19 0 22 2 11 7 -9 4 -15 15 -14 24 3 14 -3 17 -26 14 -16 -2 -29 0 -29
4 0 10 53 34 70 31 10 -2 8 2 -5 12 -19 15 -18 16 22 32 28 11 40 21 38 33 -2
9 -4 19 -4 22 -1 3 -6 -2 -11 -10 -7 -10 -10 -11 -10 -2 0 7 7 15 16 19 13 5
13 7 2 14 -10 7 -10 9 2 9 13 0 13 1 0 10 -11 7 -12 10 -2 10 10 0 9 5 -3 17
-14 14 -15 18 -4 27 24 19 22 38 -3 32 l-23 -6 23 11 c12 7 22 18 22 26 0 7 5
13 11 13 5 0 7 5 4 10 -3 6 -1 10 4 10 6 0 20 9 30 19 15 15 28 18 63 14 42
-6 87 -22 61 -23 -7 0 -13 -11 -13 -25 0 -14 -5 -25 -11 -25 -6 0 -9 -7 -5
-15 3 -8 0 -15 -6 -15 -6 0 -8 -3 -5 -7 4 -3 -3 -18 -15 -31 -13 -14 -16 -21
-9 -17 10 6 8 -2 -5 -21 -11 -16 -19 -39 -18 -51 1 -13 -3 -23 -7 -23 -5 0 -9
-9 -9 -21 0 -11 -4 -17 -10 -14 -6 4 -10 -6 -10 -23 0 -19 6 -32 17 -36 14 -6
15 -9 4 -16 -8 -4 -20 -6 -28 -3 -8 3 -13 -3 -13 -17 0 -14 -4 -19 -12 -14 -9
5 -9 3 1 -9 7 -9 17 -14 22 -11 5 3 9 0 9 -6 0 -8 6 -8 20 0 11 6 20 21 20 33
0 12 7 32 15 43 8 12 11 24 8 28 -3 3 -2 6 4 6 6 0 13 10 16 23 14 61 48 164
66 197 11 21 17 41 13 46 -4 4 -1 4 6 0 7 -4 12 -1 12 8 0 18 8 20 29 7 13 -9
13 -17 -4 -81 -3 -14 -7 -30 -9 -37 -1 -7 -5 -15 -8 -19 -4 -3 -4 -13 -1 -22
5 -11 3 -13 -8 -7 -11 7 -11 5 1 -10 8 -10 10 -16 4 -12 -6 3 -16 -5 -23 -20
-10 -23 -10 -25 6 -19 17 6 17 5 1 -8 -21 -16 -23 -32 -5 -40 9 -5 9 -7 -2
-12 -11 -5 -11 -8 0 -15 9 -6 10 -9 2 -9 -7 0 -10 -11 -7 -29 3 -18 -1 -35
-11 -45 -9 -9 -12 -16 -6 -16 6 0 11 -5 11 -11 0 -5 -4 -8 -9 -5 -5 3 -8 -2
-7 -12 1 -14 -8 -17 -64 -17 -36 0 -94 3 -130 8 -36 4 -87 9 -115 12 -27 3
-68 7 -90 10 l-40 5 50 -23 c34 -16 80 -27 135 -31 47 -4 99 -9 115 -12 17 -2
56 -6 88 -8 53 -3 59 -2 82 26 14 16 25 33 25 37 0 9 48 295 59 347 4 22 11
46 15 52 4 7 3 12 -3 12 -5 0 -9 9 -8 20 2 26 47 28 48 3 0 -16 1 -16 8 1 7
17 8 17 24 2 15 -15 15 -20 3 -39 -8 -12 -17 -35 -19 -52 -6 -39 -36 -212 -43
-245 -2 -14 -7 -46 -10 -71 -7 -64 6 -73 93 -61 37 5 89 8 114 6 33 -3 60 2
102 21 32 14 69 25 82 25 37 0 48 32 41 114 -3 39 -8 82 -10 96 -3 14 -7 43
-11 65 -3 22 -8 46 -10 53 -2 6 1 12 8 13 9 0 9 2 0 6 -7 2 -13 17 -13 31 -1
43 -22 62 -61 57 -19 -2 -40 0 -48 4 -9 6 -2 8 20 7 19 -2 44 1 57 6 17 6 21
5 16 -4 -5 -8 -2 -9 12 -4 36 15 66 15 60 1 -3 -10 0 -12 11 -8 12 5 14 3 8
-7 -5 -9 -4 -11 4 -6 9 6 9 11 0 22 -10 12 -9 13 5 8 9 -3 16 -2 16 3 0 5 34
8 78 6 98 -4 112 -6 106 -15 -8 -12 -38 -10 -54 5 -12 10 -12 9 -2 -5 9 -11
10 -18 2 -23 -5 -3 -10 -11 -10 -18 0 -6 6 -4 13 5 6 9 25 18 40 21 28 4 36
-2 41 -37 1 -8 5 -18 9 -22 10 -10 -3 49 -14 62 -12 15 33 35 52 23 8 -5 11
-9 7 -9 -4 0 -3 -11 2 -24 6 -18 5 -26 -5 -30 -17 -6 -13 -39 6 -44 8 -2 10 0
4 5 -20 16 -14 31 17 42 38 13 48 14 29 2 -16 -10 -24 -41 -11 -41 15 0 21 18
8 24 -7 3 -4 4 7 1 27 -6 53 10 30 19 -9 3 -14 10 -10 15 3 5 -8 9 -24 9 -17
-1 -28 -5 -25 -10 3 -4 0 -8 -5 -8 -6 0 -11 4 -11 8 0 14 39 46 47 39 3 -4 1
-7 -5 -7 -7 0 -12 -5 -12 -10 0 -7 6 -7 20 0 19 10 22 7 19 -17 -2 -13 31 -24
48 -15 11 7 21 6 30 -3 19 -19 16 -27 -5 -14 -12 8 -25 8 -35 3 -15 -9 -14
-11 5 -23 19 -12 20 -11 14 6 -6 15 -5 16 6 5 11 -11 10 -16 -6 -28 -24 -17
-13 -19 17 -2 21 10 21 10 7 -7 -13 -16 -13 -18 0 -13 18 5 27 78 10 78 -7 0
-7 6 1 22 11 20 13 20 24 5 6 -9 16 -13 21 -9 4 4 3 0 -4 -9 -6 -9 -10 -18 -7
-21 8 -8 23 -213 16 -219 -3 -4 -15 -3 -26 1 -11 5 -15 9 -8 9 18 1 4 31 -16
32 -12 0 -12 2 4 9 17 7 17 9 3 9 -14 1 -18 9 -17 34 0 27 2 29 9 12 5 -11 9
-15 9 -8 1 19 -10 43 -21 43 -11 0 -7 -112 5 -121 11 -8 -3 -40 -17 -38 -6 1
-20 1 -31 0 -18 -1 -18 -3 -3 -11 11 -7 26 -6 45 1 27 11 83 19 83 13 0 -10
-61 -33 -74 -28 -8 3 -23 1 -34 -5 -25 -13 -62 -3 -40 10 10 7 10 9 -2 9 -13
0 -13 1 0 11 11 8 12 12 2 16 -6 2 -10 8 -7 13 3 4 -2 11 -11 14 -8 3 -13 2
-10 -3 3 -5 -1 -12 -10 -15 -10 -4 -13 -2 -8 7 5 9 4 9 -6 0 -16 -15 -3 -36
19 -29 14 5 14 4 -1 -6 -15 -11 -15 -13 0 -25 15 -12 15 -12 -2 -6 -13 4 -17
3 -12 -5 5 -8 1 -10 -10 -5 -10 3 -15 2 -12 -3 4 -5 -16 -9 -43 -9 -36 -1 -44
2 -32 9 9 5 29 9 45 8 15 0 31 4 34 10 4 6 -1 8 -13 4 -12 -4 -25 -1 -30 6
-14 17 -14 70 0 61 5 -3 7 -1 3 5 -3 5 0 13 6 15 8 4 7 6 -4 6 -9 1 -18 7 -20
13 -3 7 -5 -9 -6 -36 -3 -61 -15 -83 -47 -83 -14 0 -22 4 -18 10 3 6 1 7 -6 3
-6 -4 -23 0 -36 8 -14 9 -25 13 -25 8 0 -10 69 -44 78 -38 4 2 8 -9 8 -24 1
-17 -4 -31 -14 -35 -13 -5 -13 -3 -1 11 12 14 11 16 -6 12 -11 -2 -19 -11 -19
-20 1 -10 -5 -14 -17 -11 -26 7 -24 19 4 28 13 4 17 8 9 12 -6 2 -10 9 -7 14
4 5 -14 19 -39 31 -26 12 -46 26 -46 31 0 5 7 6 16 3 9 -4 13 -2 8 5 -4 7 0 9
12 5 11 -3 26 -1 34 4 13 9 13 10 0 10 -12 0 -12 2 -2 8 9 6 5 12 -13 20 -15
7 -24 8 -20 2 3 -5 4 -10 1 -10 -2 0 -12 -3 -22 -7 -11 -4 -15 -3 -10 5 3 6 1
14 -5 18 -7 4 -9 3 -6 -3 4 -6 0 -14 -9 -17 -8 -3 -12 -11 -8 -18 5 -7 1 -9
-12 -6 -16 4 -20 -1 -21 -25 0 -19 2 -25 7 -16 5 7 6 17 4 21 -9 14 23 9 35
-6 18 -21 -40 -40 -66 -21 -10 8 -13 15 -6 15 16 0 9 33 -8 38 -11 3 -11 1 1
-7 8 -6 10 -11 5 -11 -6 0 -12 -11 -13 -25 -1 -18 3 -25 16 -26 16 -1 16 -2 0
-6 -21 -5 -23 -26 -5 -42 10 -8 14 -7 14 4 0 8 -5 11 -10 8 -6 -4 -7 -1 -3 6
5 7 15 10 23 7 8 -3 24 -1 35 5 16 8 19 8 13 -1 -5 -9 -2 -10 12 -6 13 4 20 2
20 -8 0 -11 -10 -13 -39 -11 -22 2 -36 0 -33 -6 4 -5 -1 -12 -9 -15 -17 -6
-23 -44 -7 -44 5 0 15 8 22 17 12 15 12 16 -6 9 -18 -6 -18 -5 -5 7 8 8 26 18
40 22 25 8 25 8 6 -14 -11 -11 -15 -21 -10 -21 5 -1 0 -6 -11 -13 -24 -14 -32
-39 -10 -31 8 4 13 10 10 14 -3 5 12 7 33 5 21 -2 45 1 53 6 12 7 12 9 -1 9
-13 0 -13 1 0 10 20 13 33 13 24 -1 -5 -8 -1 -8 14 0 26 14 35 14 26 0 -4 -8
1 -9 17 -3 13 4 31 8 40 8 9 0 16 5 16 12 0 6 -10 10 -21 8 -13 -3 -16 -2 -6
3 8 3 21 13 28 22 11 14 11 14 5 -3 -5 -16 -3 -18 15 -14 15 4 25 0 32 -10 7
-13 9 -13 10 -3 0 8 3 12 6 8 3 -3 17 -2 30 3 14 6 24 6 24 1 0 -5 13 -4 29 2
17 6 28 13 26 16 -2 4 13 7 33 7 65 2 124 13 140 26 13 11 14 11 8 0 -6 -10 0
-10 22 2 17 9 38 13 46 10 9 -4 22 -1 30 5 7 6 15 8 18 5 3 -3 23 2 43 10 21
9 55 16 75 16 48 0 72 9 63 23 -4 7 1 8 13 4 18 -7 18 -7 0 8 -11 8 -15 15 -8
15 8 0 9 7 2 24 -5 13 -6 27 -3 30 4 3 2 6 -3 6 -5 0 -10 8 -11 18 -1 9 -4 26
-6 37 -3 11 -6 23 -6 28 -1 4 -8 7 -16 7 -9 0 -12 -6 -9 -17 5 -15 4 -16 -5
-3 -8 11 -7 18 5 27 9 7 14 19 11 28 -4 8 -3 15 1 15 4 0 18 -39 31 -87 29
-111 40 -140 68 -182 25 -37 34 -80 10 -47 -10 13 -20 16 -35 12 -12 -4 -20
-11 -18 -15 3 -4 -10 -8 -27 -9 -24 -2 -28 0 -17 8 10 7 11 10 2 10 -7 0 -17
-12 -23 -27 -8 -22 -12 -24 -19 -13 -6 8 -10 11 -10 7 0 -5 -6 -5 -12 0 -20
12 -32 10 -39 -6 -5 -14 -25 -21 -67 -23 -17 0 -20 -4 -13 -11 17 -17 13 -37
-5 -30 -11 4 -12 8 -4 13 20 12 -18 20 -46 10 -14 -6 -30 -7 -36 -4 -7 4 -8 2
-4 -4 9 -15 1 -15 -27 -1 -12 7 -19 8 -15 4 4 -5 3 -14 -3 -22 -10 -11 -15
-11 -27 -1 -13 11 -15 10 -9 -4 8 -22 -47 -65 -59 -47 -4 7 -3 9 3 6 6 -4 16
-1 22 7 20 24 -11 26 -38 2 -13 -11 -21 -16 -18 -9 4 6 4 13 0 16 -5 2 -1 2 7
0 11 -3 12 -1 4 7 -7 7 -18 7 -35 1 -13 -5 -17 -10 -9 -11 12 0 11 -3 -3 -11
-13 -8 -22 -7 -33 2 -8 6 -17 9 -21 5 -3 -3 -1 -6 5 -6 19 0 14 -28 -8 -40
-11 -6 -19 -16 -17 -22 1 -6 -5 -13 -13 -15 -13 -4 -13 -3 0 6 13 9 13 11 -2
11 -10 0 -18 5 -18 10 0 6 -5 10 -11 10 -5 0 -8 -4 -4 -9 11 -19 -36 -23 -62
-6 -22 15 -25 15 -20 2 4 -10 -1 -15 -16 -14 -12 0 -31 -4 -41 -8 -15 -6 -17
-5 -11 5 6 10 4 12 -8 7 -9 -3 -18 -3 -21 2 -6 9 -60 6 -78 -5 -7 -5 -23 -7
-36 -5 -21 2 -23 -1 -20 -26 1 -15 7 -32 13 -36 6 -5 -1 -6 -15 -3 -26 5 -66
-11 -72 -29 -2 -5 -6 -9 -10 -8 -4 2 -5 -4 -1 -12 4 -11 9 -13 18 -5 6 5 14 7
18 4 3 -3 4 2 3 13 -2 10 2 21 8 25 20 14 27 8 15 -13 -7 -13 -7 -19 -1 -15 6
3 14 1 18 -5 4 -8 3 -9 -4 -5 -7 4 -12 3 -12 -3 0 -5 -8 -8 -17 -7 -19 3 -43
-15 -36 -26 2 -5 -3 -8 -12 -8 -10 0 -15 6 -12 13 2 6 1 21 -4 32 -6 16 -8 14
-8 -11 -1 -30 -31 -59 -31 -31 0 7 -7 3 -15 -7 -13 -17 -15 -18 -15 -3 0 9 -6
17 -12 17 -10 0 -9 3 1 9 19 12 -3 24 -32 17 -12 -3 -16 -3 -9 0 6 3 10 9 7
14 -3 4 5 6 17 3 l23 -4 -23 14 c-23 13 -23 13 18 32 68 31 74 71 16 109 -52
33 -103 12 -90 -38 5 -22 2 -27 -21 -36 -15 -6 -37 -11 -50 -12 -16 -2 -21 -7
-17 -21 3 -10 11 -21 18 -24 8 -3 11 -9 8 -14 -3 -5 3 -6 13 -2 14 5 13 1 -5
-16 -22 -21 -22 -48 0 -35 7 4 8 2 4 -5 -4 -6 -11 -9 -16 -6 -4 3 -10 0 -12
-6 -2 -5 -11 -7 -21 -4 -9 4 -14 11 -11 16 3 5 0 9 -5 9 -6 0 -11 -7 -11 -16
0 -8 -4 -13 -9 -10 -5 4 -20 2 -33 -3 l-23 -10 25 1 c14 1 36 -2 50 -6 17 -5
21 -4 11 2 -10 7 -6 9 15 8 16 0 29 -6 29 -11 0 -6 -8 -9 -18 -8 -10 2 -16 -1
-13 -6 4 -5 -4 -7 -16 -3 -16 4 -19 2 -13 -9 5 -8 5 -11 1 -7 -5 4 -20 2 -34
-3 -17 -7 -29 -6 -36 1 -8 8 -6 9 8 4 13 -5 17 -4 13 3 -5 7 0 9 12 6 10 -3
22 0 25 6 5 8 -6 9 -34 6 -46 -6 -70 2 -49 16 11 7 11 9 1 9 -7 0 -10 5 -7 10
3 6 1 10 -4 10 -6 0 -11 -9 -11 -19 0 -20 -42 -37 -62 -25 -7 4 -8 3 -4 -4 4
-7 2 -12 -5 -12 -6 0 -9 -8 -6 -20 3 -11 2 -20 -1 -20 -11 1 -42 27 -38 31 3
2 -5 5 -17 5 -12 1 -42 9 -66 18 -25 10 -115 26 -200 37 -86 12 -171 27 -188
35 -18 7 -39 11 -47 8 -8 -3 -24 -1 -35 6 -13 6 -21 7 -21 1 0 -6 -13 -5 -32
3 -18 7 -50 13 -70 12 -21 -1 -38 2 -38 6 0 4 -21 8 -47 7 -57 0 -101 5 -127
16 -15 6 -17 5 -11 -5 6 -9 4 -11 -4 -6 -7 5 -44 10 -84 11 -39 2 -94 7 -121
11 -53 8 -82 11 -129 13 -16 0 -26 4 -24 9 5 7 -37 9 -229 14 l-92 2 10 29
c12 34 63 73 139 106 92 40 98 44 94 51 -2 4 6 6 18 4 12 -2 96 -11 186 -20
139 -14 171 -20 203 -40 40 -25 78 -32 78 -13 0 6 -7 9 -15 5 -8 -3 -15 -1
-15 4 0 6 -4 10 -10 10 -5 0 -29 13 -52 30 -40 28 -51 30 -153 35 -60 3 -129
8 -152 11 l-42 6 14 28 c8 16 18 31 23 34 11 6 137 -30 184 -53 21 -10 38 -15
38 -10 0 15 -74 59 -100 59 -14 0 -48 6 -77 14 -28 8 -55 11 -59 7 -3 -3 3 13
15 37 12 23 24 42 27 42 3 0 2 -6 -1 -12 -4 -7 1 -4 9 7 9 11 14 25 12 32 -3
7 0 12 7 10 7 -1 11 6 11 16 -1 10 1 16 4 13 9 -9 53 84 46 96 -5 7 -2 8 6 3
8 -5 11 -3 8 6 -8 20 31 85 56 97 26 12 79 13 97 1z m2483 -51 c3 -16 3 -28
-2 -28 -4 0 -9 14 -10 32 -3 37 2 35 12 -4z m-304 12 c0 -6 -7 -13 -15 -16 -8
-4 -12 -10 -9 -15 3 -5 -2 -6 -12 -2 -14 5 -14 7 5 18 12 6 18 14 15 18 -4 4
-2 7 4 7 7 0 12 -5 12 -10z m72 -26 c5 -16 10 -63 12 -104 3 -41 7 -85 11 -96
4 -12 2 -25 -4 -28 -16 -11 -38 15 -33 40 2 13 -2 24 -13 28 -15 5 -17 2 -13
-26 7 -45 1 -58 -28 -58 -13 0 -24 1 -25 3 0 1 -4 36 -7 77 l-7 76 27 -4 c22
-3 28 -10 28 -28 0 -13 2 -24 4 -24 2 0 11 -3 19 -6 13 -4 14 1 7 30 -4 20 -6
36 -3 36 3 0 -1 8 -8 17 -11 13 -11 15 -1 9 19 -12 11 52 -8 64 -11 7 -12 10
-2 10 7 0 11 4 8 9 -4 5 2 8 11 7 9 -2 21 -16 25 -32z m-201 19 c-11 -5 -11
-7 0 -14 8 -5 9 -9 3 -9 -6 0 -16 6 -22 13 -8 10 -6 13 11 14 12 0 16 -1 8 -4z
m-726 -23 c3 -5 1 -10 -4 -10 -6 0 -11 5 -11 10 0 6 2 10 4 10 3 0 8 -4 11
-10z m885 -10 c-8 -5 -19 -10 -25 -10 -5 0 -3 5 5 10 8 5 20 10 25 10 6 0 3
-5 -5 -10z m-2476 -15 c-4 -8 -8 -15 -10 -15 -2 0 -4 7 -4 15 0 8 4 15 10 15
5 0 7 -7 4 -15z m-991 -37 c-7 -56 -13 -62 -13 -11 0 33 6 53 15 53 1 0 0 -19
-2 -42z m3925 25 c13 -25 -4 -65 -25 -61 -9 2 -18 9 -21 17 -3 8 0 11 7 7 6
-4 11 -3 11 3 0 5 -5 11 -12 13 -16 6 -2 38 16 38 9 0 19 -8 24 -17z m-266
-64 c12 -81 10 -96 -15 -101 -26 -5 -30 5 -31 93 -1 45 -4 56 -16 52 -13 -4
-13 -3 -1 5 28 20 56 -2 63 -49z m-78 -42 c3 -64 -7 -98 -18 -60 -10 38 -17
123 -11 133 14 23 26 -7 29 -73z m-4008 8 c-1 -9 -5 -15 -9 -15 -4 0 -11 0
-15 0 -5 0 -9 7 -9 15 0 8 8 15 18 15 10 0 16 -7 15 -15z m4311 -50 c0 -8 -4
-12 -9 -9 -5 3 -6 10 -3 15 9 13 12 11 12 -6z m-1851 -10 c-13 -10 -15 -15 -6
-15 7 0 11 -3 7 -6 -3 -3 -11 -3 -18 2 -9 5 -7 11 6 21 11 7 21 13 24 13 3 0
-3 -7 -13 -15z m1739 -3 c-3 -3 -11 0 -18 7 -9 10 -8 11 6 5 10 -3 15 -9 12
-12z m-784 -29 c-11 -4 -11 -7 0 -14 8 -4 -2 -6 -24 -5 -21 2 -41 7 -45 11 -4
4 2 5 13 1 11 -3 27 -1 35 4 8 5 20 9 25 9 6 0 4 -3 -4 -6z m699 -7 c-4 -4
-16 -4 -26 2 -16 9 -14 10 8 9 15 -1 23 -6 18 -11z m50 -4 c0 -4 -9 -8 -19 -8
-11 0 -17 4 -15 8 3 4 12 8 20 8 8 0 14 -4 14 -8z m-1699 -25 c-8 -8 -14 -7
-23 2 -11 10 -9 11 6 5 15 -6 17 -4 11 6 -6 9 -4 11 4 5 9 -5 10 -10 2 -18z
m1879 -27 c10 -6 6 -9 -18 -8 -17 1 -29 5 -26 10 7 11 25 10 44 -2z m-935 -18
c31 -17 48 -49 21 -39 -10 4 -13 -1 -11 -18 1 -13 -4 -26 -12 -29 -8 -3 -12
-10 -9 -14 3 -5 -9 -9 -27 -9 -18 0 -26 2 -18 5 11 4 11 6 0 14 -10 7 -8 8 7
3 17 -4 22 -1 20 12 0 10 5 17 12 16 6 -2 12 2 12 7 0 6 -6 10 -12 10 -10 0
-10 2 0 9 10 6 5 12 -18 21 -23 9 -28 15 -18 21 17 11 18 11 53 -9z m425 8 c0
-5 -5 -10 -11 -10 -5 0 -7 5 -4 10 3 6 8 10 11 10 2 0 4 -4 4 -10z m-3453 -32
c-3 -8 -6 -5 -6 6 -1 11 2 17 5 13 3 -3 4 -12 1 -19z m3253 -35 c0 -7 -39 17
-46 28 -3 6 5 3 20 -6 14 -10 26 -19 26 -22z m-2280 17 c0 -5 -5 -10 -11 -10
-5 0 -7 5 -4 10 3 6 8 10 11 10 2 0 4 -4 4 -10z m696 -32 c6 -10 -62 -9 -136
2 -49 7 -46 8 38 7 51 0 95 -4 98 -9z m2139 -8 c3 -5 1 -10 -4 -10 -6 0 -11 5
-11 10 0 6 2 10 4 10 3 0 8 -4 11 -10z m131 -36 c-14 -15 -14 -15 -20 20 -5
28 -5 28 13 10 12 -14 14 -22 7 -30z m-351 6 c-3 -5 -12 -10 -18 -10 -7 0 -6
4 3 10 19 12 23 12 15 0z m-80 -20 c-3 -5 0 -10 7 -10 9 0 9 -3 -2 -10 -8 -5
-19 -10 -25 -10 -5 0 -3 5 5 10 11 7 11 10 2 10 -7 0 -10 5 -7 10 3 6 11 10
16 10 6 0 7 -4 4 -10z m412 -25 c0 -17 -13 -20 -21 -6 -4 5 0 12 6 14 7 3 13
6 14 6 0 1 1 -6 1 -14z m17 -31 c22 -8 20 -33 -1 -29 -10 2 -25 4 -33 5 -11 1
-11 3 -2 7 6 2 10 9 6 14 -6 10 7 12 30 3z m-4992 -51 c-6 -2 -10 -9 -7 -13 3
-5 1 -11 -4 -14 -7 -5 -8 11 -2 32 1 1 7 2 14 1 9 0 9 -2 -1 -6z m3748 3 c0
-2 -9 -6 -20 -9 -11 -3 -18 -1 -14 4 5 9 34 13 34 5z m600 -6 c-8 -5 -19 -10
-25 -10 -5 0 -3 5 5 10 8 5 20 10 25 10 6 0 3 -5 -5 -10z m-150 -17 c0 -7 -7
-10 -17 -6 -11 5 -14 3 -8 -6 6 -10 3 -11 -13 -2 -15 8 -29 7 -57 -5 -25 -10
-34 -11 -29 -3 5 9 2 10 -9 6 -24 -9 -21 0 4 14 17 8 20 8 14 -1 -5 -9 -1 -10
16 -5 13 4 29 10 36 14 20 11 63 7 63 -6z m606 2 c-11 -8 -25 -15 -30 -15 -6
1 0 7 14 15 32 19 40 18 16 0z m184 -15 c0 -5 -8 -10 -17 -10 -15 0 -16 2 -3
10 19 12 20 12 20 0z m-995 -18 c-3 -3 -11 0 -18 7 -9 10 -8 11 6 5 10 -3 15
-9 12 -12z m632 -17 c0 -8 -4 -12 -8 -9 -4 2 -20 -1 -35 -6 -20 -8 -30 -8 -38
1 -8 9 -8 10 1 5 9 -5 68 13 79 23 0 1 1 -6 1 -14z m-917 -31 c0 -3 -10 -2
-22 1 -23 7 -23 7 -3 -8 20 -16 20 -16 -1 -14 -14 1 -21 7 -19 17 2 8 4 19 4
23 1 8 41 -10 41 -19z m-3700 12 c0 -2 -7 -7 -16 -10 -8 -3 -12 -2 -9 4 6 10
25 14 25 6z m1770 -6 c-20 -13 -33 -13 -25 0 3 6 14 10 23 10 15 0 15 -2 2
-10z m2177 4 c-3 -3 -12 -4 -19 -1 -8 3 -5 6 6 6 11 1 17 -2 13 -5z m1036 -14
c3 -11 0 -23 -5 -27 -7 -3 -8 -1 -4 5 4 7 3 12 -3 12 -6 0 -8 7 -5 15 8 20 11
19 17 -5z m-493 -1 c0 -13 -53 -20 -64 -9 -8 8 -6 9 8 4 11 -4 17 -3 14 2 -4
5 5 9 18 9 13 0 24 -3 24 -6z m360 -3 c0 -2 -7 -6 -15 -10 -8 -3 -15 -1 -15 4
0 6 7 10 15 10 8 0 15 -2 15 -4z m-3070 -26 c0 -5 -5 -10 -12 -10 -6 0 -8 -3
-5 -7 4 -3 1 -13 -6 -21 -10 -13 -9 -15 4 -10 10 4 29 -5 48 -21 30 -26 31
-29 16 -44 -22 -23 -51 -21 -76 4 -21 21 -20 59 3 102 9 18 28 23 28 7z m2638
5 c-6 -6 -26 -11 -78 -19 l-35 -6 40 14 c40 15 83 21 73 11z m-2593 -14 c7
-12 -12 -24 -25 -16 -11 7 -4 25 10 25 5 0 11 -4 15 -9z m223 -55 c-3 -25 -5
-23 -20 20 l-17 47 20 -20 c13 -13 19 -30 17 -47z m-94 43 c-4 -7 0 -9 14 -5
11 4 23 2 26 -3 10 -16 -12 -23 -34 -11 -21 11 -27 30 -9 30 5 0 7 -5 3 -11z
m2339 -12 c-3 -5 -14 -7 -24 -4 -11 3 -19 1 -19 -4 0 -4 -6 -6 -14 -3 -8 3
-17 1 -21 -5 -7 -13 -35 -15 -35 -3 0 9 63 27 97 27 11 0 19 -4 16 -8z m-2574
-14 c-4 -27 5 -48 30 -74 16 -16 26 -29 21 -29 -44 0 -76 57 -61 108 2 6 11 1
10 -5z m464 -38 c12 -2 31 -6 42 -8 11 -3 -4 -5 -34 -6 -45 -1 -52 2 -47 15 3
9 7 23 7 32 1 10 4 8 6 -5 3 -13 14 -25 26 -28z m1724 15 c-4 -16 -5 -30 -3
-30 3 0 12 -3 22 -7 12 -4 15 -3 10 5 -4 8 -2 10 7 6 8 -3 21 2 29 10 13 12
19 13 33 2 21 -15 5 -32 -20 -22 -8 3 -15 1 -15 -4 0 -6 -3 -9 -7 -8 -5 1 -28
-5 -53 -12 -25 -7 -48 -13 -52 -12 -4 1 -26 -5 -49 -13 -23 -9 -44 -13 -47
-10 -3 3 -11 0 -18 -5 -6 -6 -16 -9 -20 -8 -5 2 -22 -2 -39 -8 -26 -10 -164
-45 -235 -59 -90 -19 -110 -22 -110 -13 0 5 6 11 14 14 8 3 13 11 10 18 -4 10
6 11 40 6 37 -6 47 -4 51 9 3 9 13 17 22 18 10 1 32 4 48 6 17 3 34 6 39 6 5
1 3 8 -4 16 -11 14 -10 14 11 7 13 -5 30 -7 38 -4 8 3 11 0 7 -7 -5 -7 -1 -9
8 -5 9 3 14 9 12 13 -3 4 4 7 14 7 12 0 16 -4 10 -11 -6 -7 -2 -11 9 -11 12 0
17 5 13 15 -3 8 -1 12 5 8 14 -9 37 19 28 32 -3 6 -1 19 4 28 9 15 10 13 11
-14 0 -18 5 -33 11 -33 6 0 8 8 5 18 -3 9 -1 24 4 32 8 12 10 12 11 -5 1 -11
1 -24 0 -28 -1 -5 4 -7 11 -5 7 3 14 17 16 31 2 15 8 27 14 27 6 0 8 -12 5
-30 -4 -16 -2 -32 3 -35 6 -4 10 11 10 34 0 23 5 41 10 41 6 0 10 -11 10 -25
0 -14 5 -25 10 -25 6 0 10 14 10 30 0 35 17 40 23 8 4 -20 4 -19 6 5 0 15 6
27 12 27 7 0 9 -11 6 -30z m-2017 10 c0 -5 -2 -10 -4 -10 -3 0 -8 5 -11 10 -3
6 -1 10 4 10 6 0 11 -4 11 -10z m2275 1 c3 -6 -3 -10 -12 -10 -10 1 -36 -6
-58 -14 -42 -16 -81 -12 -51 5 9 5 32 11 53 14 20 2 39 7 42 9 7 8 19 6 26 -4z
m-2194 -23 c41 -23 47 -43 18 -61 -13 -8 -24 -6 -44 7 -30 19 -40 39 -31 61 7
20 11 19 57 -7z m152 -5 c-7 -2 -21 -2 -30 0 -10 3 -4 5 12 5 17 0 24 -2 18
-5z m1294 -8 c0 -9 -6 -14 -14 -11 -8 3 -11 1 -8 -4 3 -6 16 -11 28 -11 16 -1
17 -3 5 -6 -9 -2 -27 1 -39 8 l-22 12 24 13 c13 7 24 13 25 14 0 0 1 -7 1 -15z
m-1074 -12 c-13 -2 -33 -2 -45 0 -13 2 -3 4 22 4 25 0 35 -2 23 -4z m222 -18
c22 -8 33 -14 24 -15 -9 0 -32 7 -50 15 -44 18 -26 19 26 0z m-395 -21 c0 -8
-4 -12 -10 -9 -5 3 -10 10 -10 16 0 5 5 9 10 9 6 0 10 -7 10 -16z m844 -16
c-3 -4 1 -5 9 -2 8 3 18 1 21 -5 8 -12 -34 -11 -51 2 -17 13 -46 0 -37 -15 5
-10 4 -10 -6 -1 -10 10 -11 15 -1 27 23 27 82 22 65 -6z m261 0 c15 -18 22
-23 16 -12 -6 12 -7 24 -4 28 3 3 0 6 -7 6 -7 0 -10 3 -7 6 9 9 77 -38 77 -53
0 -7 -11 -13 -24 -13 -13 0 -27 -8 -31 -17 -5 -15 -11 -10 -27 22 -11 22 -27
46 -36 53 -14 11 -14 12 0 12 9 0 28 -15 43 -32z m-1340 -1 c7 -6 -8 -7 -45
-2 -30 4 -64 7 -75 7 -15 -1 -17 1 -5 8 17 11 111 1 125 -13z m722 17 c-3 -3
-12 -4 -19 -1 -8 3 -5 6 6 6 11 1 17 -2 13 -5z m441 -12 c8 -7 19 -10 25 -6 7
3 1 -5 -13 -17 -14 -12 -18 -20 -10 -17 12 4 15 -1 14 -21 -1 -14 3 -31 8 -38
13 -16 -6 -25 -35 -18 -23 6 -24 9 -14 42 8 25 8 43 0 63 -12 32 -1 37 25 12z
m-381 2 c-3 -3 -12 -4 -19 -1 -8 3 -5 6 6 6 11 1 17 -2 13 -5z m510 -19 l28
-24 -30 4 c-16 2 -39 7 -51 10 -36 11 -24 -23 13 -36 18 -6 33 -15 33 -20 0
-5 7 -9 15 -9 18 0 20 -24 2 -38 -19 -16 -75 -8 -92 14 -16 22 -20 54 -6 54 6
0 8 8 6 18 -4 22 4 37 25 45 25 9 28 8 57 -18z m978 15 c-3 -5 -12 -10 -18
-10 -7 0 -6 4 3 10 19 12 23 12 15 0z m605 -1 c0 -5 -4 -7 -10 -4 -5 3 -23 -1
-39 -10 -43 -22 -53 -18 -11 5 40 22 60 25 60 9z m-2023 -5 c-3 -3 -12 -4 -19
-1 -8 3 -5 6 6 6 11 1 17 -2 13 -5z m1108 -62 c3 -8 10 -10 17 -5 7 4 27 8 43
9 23 1 26 0 10 -6 -56 -21 -85 -27 -79 -19 3 5 1 9 -4 9 -6 0 -12 -6 -15 -14
-3 -8 -16 -13 -31 -12 -14 2 -23 -1 -20 -5 3 -5 -2 -9 -10 -9 -13 0 -16 11
-15 48 1 42 2 44 9 17 l8 -30 1 33 c0 17 6 32 12 32 6 0 10 -10 9 -22 -3 -36
-1 -48 10 -48 6 0 8 11 6 24 -2 14 2 33 11 43 9 11 12 12 8 3 -3 -9 0 -7 7 3
12 16 13 15 16 -10 2 -15 5 -34 7 -41z m-1038 52 c-3 -3 -12 -4 -19 -1 -8 3
-5 6 6 6 11 1 17 -2 13 -5z m-989 -21 c-10 -2 -26 -2 -35 0 -10 3 -2 5 17 5
19 0 27 -2 18 -5z m1891 -5 c-4 -34 2 -69 11 -63 6 3 10 2 10 -3 0 -5 -13 -15
-29 -22 -23 -9 -34 -9 -53 1 -21 11 -22 11 -9 -4 9 -11 10 -17 2 -17 -17 0
-16 0 -73 -22 -46 -18 -78 -25 -125 -30 -7 -1 -13 -5 -13 -9 0 -4 -11 -6 -25
-4 -14 1 -23 0 -20 -3 21 -21 -203 -42 -235 -22 -10 6 -1 8 28 5 30 -3 45 0
48 10 4 9 13 11 33 5 16 -4 35 -3 45 2 9 5 24 7 32 4 8 -3 13 -2 10 3 -7 11
20 22 38 15 8 -3 21 5 30 18 9 12 16 17 16 10 0 -9 8 -8 30 3 17 9 45 18 63
20 37 4 52 8 87 22 14 6 27 9 30 8 9 -5 30 24 21 29 -11 7 -2 46 10 46 5 0 6
-7 3 -15 -4 -8 -2 -15 4 -15 5 0 12 9 15 20 6 22 19 28 16 8z m-810 -72 c17
-15 39 -20 101 -22 48 -2 78 1 75 7 -9 13 7 11 27 -5 10 -7 15 -16 11 -19 -3
-4 9 -8 28 -8 21 -1 26 -3 13 -6 -12 -2 -72 3 -135 11 -106 14 -116 17 -141
46 -16 16 -28 40 -27 53 1 19 2 18 14 -8 7 -17 23 -39 34 -49z m68 58 c3 -8
12 -13 20 -10 10 4 13 0 11 -17 -2 -18 -10 -23 -41 -25 -43 -4 -77 18 -77 50
0 14 8 18 40 18 28 0 43 -5 47 -16z m933 6 c0 -5 -2 -10 -4 -10 -3 0 -8 5 -11
10 -3 6 -1 10 4 10 6 0 11 -4 11 -10z m60 -71 c0 -11 -4 -18 -10 -14 -5 3 -7
12 -3 20 7 21 13 19 13 -6z m-1750 1 c18 -12 2 -12 -25 0 -13 6 -15 9 -5 9 8
0 22 -4 30 -9z m47 -6 c-3 -3 -12 -4 -19 -1 -8 3 -5 6 6 6 11 1 17 -2 13 -5z
m1577 -16 c-5 -8 -2 -9 9 -5 9 3 27 2 39 -2 19 -8 14 -10 -32 -17 -30 -5 -61
-8 -67 -8 -7 1 -13 -2 -13 -6 0 -8 -33 -23 -52 -25 -12 0 -21 -15 -9 -15 9 0
8 -7 -3 -27 -8 -16 -25 -52 -37 -81 -28 -68 -35 -60 -13 14 10 33 18 63 18 67
1 4 8 12 16 17 13 8 13 10 0 10 -10 0 -7 5 8 16 12 8 22 22 22 30 0 12 4 12
20 4 12 -6 20 -7 20 -1 0 5 -6 12 -12 15 -7 3 0 2 16 -1 22 -4 27 -3 21 7 -6
9 -3 9 15 0 12 -7 20 -7 16 -2 -3 6 0 13 6 15 19 8 20 8 12 -5z m832 -5 c16
-17 16 -18 1 -21 -21 -4 -22 -18 -2 -26 10 -3 15 -19 15 -42 0 -39 -19 -114
-29 -114 -11 0 -36 20 -26 20 6 0 16 4 24 9 12 8 12 11 0 23 -7 8 -20 13 -29
11 -10 -3 -16 3 -16 16 0 14 4 17 10 11 13 -13 36 -13 36 1 0 5 -5 7 -11 4 -6
-4 -17 1 -24 11 -26 34 -13 106 16 89 9 -6 11 -3 6 8 -8 22 7 22 29 0z m-2242
-2 c4 -5 -3 -7 -14 -4 -23 6 -26 13 -6 13 8 0 17 -4 20 -9z m56 -7 c0 -2 -7
-4 -15 -4 -8 0 -15 4 -15 10 0 5 7 7 15 4 8 -4 15 -8 15 -10z m104 3 c-3 -8
-19 -14 -35 -14 -23 0 -27 3 -15 9 9 5 20 7 25 3 5 -3 12 -1 16 5 9 14 15 12
9 -3z m105 -13 c4 3 8 -1 8 -9 0 -17 -15 -19 -37 -5 -10 6 -11 10 -2 10 6 0
13 8 13 18 1 16 2 16 6 -1 2 -9 8 -15 12 -13z m118 -17 c10 3 14 2 10 -2 -18
-21 -107 -14 -107 8 0 8 3 8 12 -1 7 -7 19 -12 27 -12 11 0 10 4 -5 15 -17 14
-16 14 13 1 17 -9 40 -13 50 -9z m103 -21 c0 -10 -7 -12 -22 -8 -21 5 -21 6
-2 13 10 4 20 8 22 8 1 1 2 -5 2 -13z m-533 -2 c-3 -3 -12 -4 -19 -1 -8 3 -5
6 6 6 11 1 17 -2 13 -5z m573 -4 c0 -5 -8 -10 -17 -10 -15 0 -16 2 -3 10 19
12 20 12 20 0z m-1290 -45 c14 1 30 -1 35 -5 6 -4 33 -11 60 -14 28 -4 60 -10
73 -13 14 -3 22 -1 22 7 0 16 109 5 125 -11 7 -8 3 -9 -15 -5 -21 6 -22 5 -7
-4 13 -9 22 -9 32 0 15 12 81 4 103 -13 6 -5 12 -6 12 -1 0 5 4 3 9 -5 8 -12
12 -12 25 -2 13 11 18 10 31 -2 15 -16 29 -20 130 -36 70 -11 117 -17 240 -31
50 -6 108 -13 130 -17 37 -5 38 -4 21 9 -18 14 -17 15 12 10 20 -3 29 -8 25
-16 -4 -6 -1 -6 9 2 17 14 48 6 48 -12 0 -6 4 -5 9 3 8 12 13 12 35 -2 14 -9
29 -17 33 -17 4 0 1 5 -7 10 -11 8 0 10 38 8 47 -3 50 -5 35 -17 -17 -13 -17
-13 2 -6 27 10 96 12 102 3 2 -5 -1 -8 -8 -8 -7 0 -10 -3 -7 -6 4 -3 15 -1 26
5 25 13 84 3 75 -13 -5 -8 -3 -8 8 0 8 6 50 12 94 13 80 3 150 8 150 11 0 2
46 11 72 13 13 1 18 6 13 12 -5 6 0 10 13 11 34 1 91 12 121 24 36 13 36 13
36 -10 0 -21 -52 -40 -117 -43 -18 -1 -33 -6 -33 -10 0 -5 -4 -5 -10 -2 -5 3
-10 1 -10 -5 0 -6 -4 -9 -9 -5 -5 3 -15 0 -23 -7 -7 -7 -21 -14 -32 -16 -57
-10 -66 -20 -66 -71 0 -27 -6 -53 -12 -59 -18 -13 -108 -25 -108 -14 0 5 -19
10 -42 11 -24 1 -61 4 -83 7 -22 3 -58 6 -80 7 -22 2 -47 6 -55 9 -8 4 -40 9
-70 12 -30 3 -98 12 -150 20 -52 8 -124 17 -159 20 -36 4 -67 9 -70 11 -3 1
-39 6 -78 9 -40 4 -84 11 -97 16 -13 5 -26 7 -28 4 -3 -2 -29 0 -59 6 -91 16
-122 21 -319 49 -273 40 -340 58 -340 93 0 26 0 25 -14 60 -20 50 -12 59 37
38 23 -10 53 -17 67 -15z m621 10 c5 4 8 -9 8 -27 -1 -18 -3 -25 -6 -15 -2 9
-9 15 -14 12 -5 -4 -8 9 -8 27 1 18 3 25 6 15 2 -9 9 -15 14 -12z m97 -9 c-1
-14 -6 -22 -11 -19 -5 3 -6 11 -3 18 3 8 0 16 -7 19 -7 2 -4 5 5 5 13 1 17 -6
16 -23z m39 -2 c2 -13 1 -15 -4 -4 -3 8 -11 19 -17 23 -7 6 -6 7 4 4 8 -2 16
-12 17 -23z m53 1 c0 -17 -27 -75 -35 -75 -2 0 2 15 10 33 11 26 11 37 3 45
-9 9 -8 12 5 12 9 0 17 -7 17 -15z m-153 -42 c-3 -10 -5 -2 -5 17 0 19 2 27 5
18 2 -10 2 -26 0 -35z m185 16 c-1 -13 -4 -32 -5 -41 -1 -19 -9 -23 -20 -12
-3 4 0 19 8 35 18 33 19 43 5 34 -5 -3 -10 -1 -10 5 0 7 6 10 13 7 6 -2 11
-15 9 -28z m-662 11 c0 -5 -5 -10 -11 -10 -5 0 -7 5 -4 10 3 6 8 10 11 10 2 0
4 -4 4 -10z m561 -37 c-12 -20 -14 -14 -5 12 4 9 9 14 11 11 3 -2 0 -13 -6
-23z m2659 -81 c0 -12 -3 -13 -12 -4 -7 7 -23 12 -37 12 -18 0 -22 3 -13 9 20
12 62 1 62 -17z m85 -32 c-3 -5 -12 -10 -18 -10 -7 0 -6 4 3 10 19 12 23 12
15 0z m-65 -20 c0 -5 -4 -10 -9 -10 -6 0 -13 5 -16 10 -3 6 1 10 9 10 9 0 16
-4 16 -10z m31 -21 c-11 -11 -26 -19 -33 -19 -8 1 -4 8 9 19 12 10 19 22 15
25 -3 4 2 4 11 0 17 -6 17 -8 -2 -25z m-3786 -9 c-3 -5 -12 -10 -18 -10 -7 0
-6 4 3 10 19 12 23 12 15 0z m3720 0 c3 -5 -1 -10 -10 -10 -9 0 -13 5 -10 10
3 6 8 10 10 10 2 0 7 -4 10 -10z m-3685 -4 c0 -2 -7 -7 -16 -10 -8 -3 -12 -2
-9 4 6 10 25 14 25 6z m2375 -28 c6 -6 4 -7 -6 -3 -10 4 -19 0 -23 -10 -3 -9
0 -18 9 -21 8 -4 15 -12 15 -20 0 -8 5 -14 11 -14 7 0 5 10 -5 25 -14 22 -15
25 -1 25 8 0 16 -6 16 -12 3 -31 7 -54 10 -63 5 -16 -10 -95 -19 -95 -4 0 -8
-54 -8 -120 -1 -74 -6 -126 -13 -134 -9 -11 -9 -16 -1 -21 7 -4 9 -17 5 -29
-3 -11 -8 -37 -10 -56 -16 -130 -33 -116 -31 25 1 63 -2 115 -6 115 -9 0 -9
-1 -12 -43 -4 -36 -12 -43 -31 -24 -14 14 -13 16 5 22 18 6 19 8 6 34 -15 28
-18 153 -4 166 4 4 4 13 2 20 -7 18 15 30 29 16 9 -9 8 -11 -5 -6 -10 4 -18 3
-18 -3 0 -10 23 -22 41 -22 5 0 9 10 9 23 0 13 6 29 13 36 10 11 10 13 0 7 -9
-5 -13 1 -13 17 0 20 4 24 20 20 24 -6 28 22 5 31 -8 3 -15 1 -15 -5 0 -6 -4
-7 -10 -4 -8 5 -15 -25 -12 -55 1 -10 -38 -9 -39 1 -1 5 -2 13 -3 18 0 5 -4
12 -7 15 -9 9 10 105 27 139 12 22 20 27 37 21 12 -3 27 -11 32 -16z m1287 -6
c-7 -2 -10 -7 -8 -11 3 -4 -4 -7 -15 -7 -18 0 -18 2 -5 12 9 6 13 14 9 18 -4
4 1 4 12 0 11 -5 14 -9 7 -12z m-58 -11 c-10 -10 -21 -17 -22 -16 -8 7 -40
-29 -35 -38 3 -6 1 -7 -5 -4 -14 9 -10 31 11 51 9 10 17 15 17 12 0 -3 10 -1
23 4 32 13 33 12 11 -9z m196 -31 c0 -5 -5 -10 -11 -10 -5 0 -7 5 -4 10 3 6 8
10 11 10 2 0 4 -4 4 -10z m-280 -14 c0 -3 -4 -8 -10 -11 -5 -3 -10 -1 -10 4 0
6 5 11 10 11 6 0 10 -2 10 -4z m-4282 -35 c11 -7 11 -9 -1 -14 -9 -3 -18 1
-21 9 -6 16 2 18 22 5z m165 2 c-7 -2 -19 -2 -25 0 -7 3 -2 5 12 5 14 0 19 -2
13 -5z m-366 -9 c-3 -3 -12 -4 -19 -1 -8 3 -5 6 6 6 11 1 17 -2 13 -5z m4426
-14 c-6 -23 -12 -24 -33 -9 -13 9 -13 10 2 6 9 -3 19 1 22 9 8 21 15 17 9 -6z
m-4013 -4 c0 -9 -39 -13 -51 -5 -10 6 -4 9 19 9 17 0 32 -2 32 -4z m3939 -17
c-15 -9 -32 -2 -24 11 3 5 13 6 21 3 12 -4 13 -8 3 -14z m-58 -32 c-7 -7 -14
-8 -21 -1 -6 6 -2 10 12 11 16 2 18 -1 9 -10z m-4036 -7 c4 -6 -6 -10 -22 -10
-22 0 -25 2 -13 10 19 12 27 12 35 0z m-130 -20 c3 -6 -1 -7 -9 -4 -18 7 -21
14 -7 14 6 0 13 -4 16 -10z m43 -15 c-3 -3 -9 2 -12 12 -6 14 -5 15 5 6 7 -7
10 -15 7 -18z m4400 -15 c1 -23 -4 -40 -11 -40 -6 0 -2 -7 9 -15 10 -8 15 -15
9 -15 -5 0 -3 -5 5 -10 13 -8 12 -10 -2 -10 -10 0 -18 7 -18 17 0 16 -14 10
-16 -8 -1 -5 -3 -10 -4 -11 -8 -10 -5 -58 4 -58 6 0 4 -5 -4 -10 -11 -7 -11
-10 -2 -10 7 0 10 -5 7 -11 -5 -7 -14 -6 -28 4 -16 11 -21 25 -23 68 -2 48 -1
52 12 34 8 -10 14 -13 14 -6 0 6 9 21 20 33 20 22 27 44 11 34 -12 -8 -19 14
-13 37 9 34 30 18 30 -23z m-4193 19 c15 0 16 -2 6 -8 -11 -7 -11 -9 0 -13 9
-3 8 -6 -5 -11 -9 -4 -15 -3 -11 3 3 5 -4 14 -16 20 -17 9 -23 8 -33 -6 -10
-13 -15 -14 -21 -4 -5 9 -4 11 3 6 7 -4 12 -1 12 10 0 12 5 15 23 9 12 -4 31
-7 42 -6z m3855 3 c0 -5 -7 -9 -15 -9 -8 0 -12 4 -9 9 3 4 9 8 15 8 5 0 9 -4
9 -8z m467 -8 c-3 -3 -12 -4 -19 -1 -8 3 -5 6 6 6 11 1 17 -2 13 -5z m-4432
-22 c-3 -3 -11 0 -18 7 -9 10 -8 11 6 5 10 -3 15 -9 12 -12z m465 14 c0 -2 -7
-6 -15 -10 -8 -3 -15 -1 -15 4 0 6 7 10 15 10 8 0 15 -2 15 -4z m-385 -34 c-3
-3 -11 0 -18 7 -9 10 -8 11 6 5 10 -3 15 -9 12 -12z m3805 8 c-8 -5 -19 -10
-25 -10 -5 0 -3 5 5 10 8 5 20 10 25 10 6 0 3 -5 -5 -10z m717 -16 c-3 -3 -12
-4 -19 -1 -8 3 -5 6 6 6 11 1 17 -2 13 -5z m-777 -12 c0 -4 -10 -9 -22 -9 -18
-2 -20 0 -8 7 18 12 30 13 30 2z m-85 -42 c3 -5 2 -10 -4 -10 -5 0 -13 5 -16
10 -3 6 -2 10 4 10 5 0 13 -4 16 -10z m576 -22 c0 -7 2 -23 5 -36 2 -14 0 -21
-6 -17 -5 3 -10 1 -10 -5 0 -6 -4 -9 -8 -6 -5 3 -8 18 -7 33 1 15 -3 31 -9 35
-6 4 -1 8 12 8 12 0 22 -6 23 -12z m-671 -22 c0 -2 -8 -10 -17 -17 -16 -13
-17 -12 -4 4 13 16 21 21 21 13z m-57 -38 c-13 -6 -23 -15 -23 -20 0 -4 -4 -8
-10 -8 -12 0 -9 22 5 32 6 4 19 7 30 7 19 0 18 -1 -2 -11z m651 -6 c3 -5 -1
-9 -9 -9 -8 0 -15 4 -15 9 0 4 4 8 9 8 6 0 12 -4 15 -8z m46 -28 c0 -2 -7 -4
-15 -4 -8 0 -15 4 -15 10 0 5 7 7 15 4 8 -4 15 -8 15 -10z m-770 -16 c0 -12
-3 -18 -7 -15 -3 4 -12 2 -19 -4 -10 -8 -19 -6 -36 5 -23 16 -19 20 20 16 12
-1 22 3 22 9 0 6 5 11 10 11 6 0 10 -10 10 -22z m-80 -38 c18 -12 2 -12 -25 0
-13 6 -15 9 -5 9 8 0 22 -4 30 -9z m-445 -20 c-3 -5 -11 -10 -16 -10 -6 0 -7
5 -4 10 3 6 11 10 16 10 6 0 7 -4 4 -10z m395 0 c0 -5 -2 -10 -4 -10 -3 0 -8
5 -11 10 -3 6 -1 10 4 10 6 0 11 -4 11 -10z m-390 -46 c0 -22 -26 -16 -27 5
-1 14 3 18 13 14 8 -3 14 -11 14 -19z m337 -8 c-10 -20 -14 -22 -20 -10 -10
17 -1 34 18 34 10 0 11 -5 2 -24z m-342 -26 c3 -5 2 -10 -4 -10 -5 0 -13 5
-16 10 -3 6 -2 10 4 10 5 0 13 -4 16 -10z"/>
<path d="M2945 3440 c-3 -5 -1 -10 4 -10 6 0 11 5 11 10 0 6 -2 10 -4 10 -3 0
-8 -4 -11 -10z"/>
<path d="M4830 3176 c0 -2 7 -7 16 -10 8 -3 12 -2 9 4 -6 10 -25 14 -25 6z"/>
<path d="M4719 3168 c-6 -21 -5 -38 3 -49 8 -11 9 -10 5 3 -3 9 -1 19 6 22 9
3 8 5 -1 5 -7 1 -10 6 -7 11 3 6 4 10 1 10 -3 0 -6 -1 -7 -2z"/>
<path d="M4897 3093 c9 -7 22 -13 27 -13 6 0 5 4 -3 9 -11 7 -11 9 0 14 8 2 2
4 -14 3 -24 -1 -25 -2 -10 -13z"/>
<path d="M5142 3093 c-6 -2 -9 -10 -5 -16 11 -17 13 -38 3 -32 -4 3 -13 -2
-20 -10 -9 -10 -9 -15 -1 -15 6 0 12 -15 12 -32 2 -31 2 -31 6 -5 3 17 9 25
16 21 7 -3 4 1 -7 10 -18 14 -17 15 10 23 16 4 36 6 44 5 11 -2 10 1 -3 8 -9
6 -14 16 -11 22 4 6 0 14 -7 19 -15 10 -18 10 -37 2z"/>
<path d="M4331 3074 c0 -11 3 -14 6 -6 3 7 2 16 -1 19 -3 4 -6 -2 -5 -13z"/>
<path d="M4753 3075 c0 -7 6 -11 14 -8 7 3 13 6 13 8 0 2 -6 5 -13 8 -8 3 -14
-1 -14 -8z"/>
<path d="M5020 3061 c0 -25 6 -27 13 -6 4 8 2 17 -3 20 -6 4 -10 -3 -10 -14z"/>
<path d="M5090 3054 c0 -9 -5 -12 -12 -8 -10 5 -10 3 0 -7 11 -11 14 -12 21
-1 5 8 12 13 17 12 5 -1 10 3 12 9 2 6 -6 11 -17 11 -12 0 -21 -6 -21 -16z"/>
<path d="M4932 3045 c-7 -9 -8 -15 -2 -15 5 0 10 -5 10 -11 0 -5 -4 -8 -8 -5
-5 3 -9 -2 -9 -10 0 -8 5 -13 11 -11 6 3 19 0 30 -5 15 -8 16 -12 5 -19 -12
-7 -11 -9 1 -9 13 0 13 -1 0 -10 -13 -9 -13 -10 0 -10 13 0 13 -1 0 -10 -11
-7 -11 -10 -2 -10 7 0 10 -4 7 -10 -3 -5 -1 -10 5 -10 7 0 10 6 7 14 -3 8 -1
17 6 20 9 3 9 5 0 5 -7 1 -10 7 -7 15 3 8 1 24 -5 35 -7 13 -8 22 -1 26 16 10
12 25 -7 25 -16 0 -16 -2 -3 -11 12 -8 11 -9 -5 -7 -12 2 -19 10 -17 21 3 20
1 21 -16 2z"/>
<path d="M3287 3033 c-2 -10 -8 -26 -12 -35 -6 -15 -2 -18 20 -18 25 0 27 3
20 28 -9 36 -21 48 -28 25z"/>
<path d="M4757 3039 c7 -7 15 -10 18 -7 3 3 -2 9 -12 12 -14 6 -15 5 -6 -5z"/>
<path d="M3186 3024 c-3 -8 1 -22 9 -30 13 -14 15 -13 15 10 0 29 -15 43 -24
20z"/>
<path d="M3230 3025 c0 -9 6 -12 18 -9 15 5 14 3 -2 -10 -24 -20 -16 -31 9
-12 11 8 16 20 12 30 -8 20 -37 21 -37 1z"/>
<path d="M3990 3025 c-14 -8 -19 -14 -10 -14 8 0 24 6 34 14 25 19 9 19 -24 0z"/>
<path d="M4322 3020 c0 -14 2 -19 5 -12 2 6 2 18 0 25 -3 6 -5 1 -5 -13z"/>
<path d="M5033 3015 c0 -7 6 -11 14 -8 7 3 13 6 13 8 0 2 -6 5 -13 8 -8 3 -14
-1 -14 -8z"/>
<path d="M4755 3010 c3 -5 -1 -10 -9 -10 -9 0 -16 -5 -16 -10 0 -7 7 -7 20 0
17 9 20 30 4 30 -3 0 -2 -4 1 -10z"/>
<path d="M4818 2989 c-6 -4 5 -6 25 -5 21 2 40 5 42 8 8 8 -53 5 -67 -3z"/>
<path d="M4304 2943 c-3 -27 -18 -109 -33 -183 -16 -83 -24 -149 -20 -170 l6
-35 2 31 c2 56 13 124 20 120 3 -2 7 19 8 48 1 28 10 93 21 144 10 50 15 92
11 92 -4 0 -11 -21 -15 -47z"/>
<path d="M4930 2980 c-9 -6 -10 -10 -3 -10 6 0 15 5 18 10 8 12 4 12 -15 0z"/>
<path d="M4780 2970 c-9 -6 -10 -10 -3 -10 6 0 15 5 18 10 8 12 4 12 -15 0z"/>
<path d="M4752 2940 c0 -14 2 -19 5 -12 2 6 2 18 0 25 -3 6 -5 1 -5 -13z"/>
<path d="M5140 2950 c-9 -6 -10 -10 -3 -10 6 0 15 5 18 10 8 12 4 12 -15 0z"/>
<path d="M3105 2930 c-3 -6 1 -7 9 -4 18 7 21 14 7 14 -6 0 -13 -4 -16 -10z"/>
<path d="M4940 2906 c0 -8 4 -17 9 -20 5 -4 7 3 4 14 -6 23 -13 26 -13 6z"/>
<path d="M5057 2890 c-3 -11 -1 -20 4 -20 5 0 9 9 9 20 0 11 -2 20 -4 20 -2 0
-6 -9 -9 -20z"/>
<path d="M5250 2870 c-8 -5 -10 -10 -5 -10 6 0 17 5 25 10 8 5 11 10 5 10 -5
0 -17 -5 -25 -10z"/>
<path d="M3920 2856 c0 -2 9 -6 20 -9 11 -3 18 -1 14 4 -5 9 -34 13 -34 5z"/>
<path d="M3150 2790 c42 -23 46 -24 53 -7 3 7 -2 13 -12 13 -9 0 -29 3 -46 7
-30 7 -30 7 5 -13z"/>
<path d="M3243 2803 c9 -2 23 -2 30 0 6 3 -1 5 -18 5 -16 0 -22 -2 -12 -5z"/>
<path d="M3935 2800 c3 -5 14 -10 23 -10 15 0 15 2 2 10 -20 13 -33 13 -25 0z"/>
<path d="M4757 2719 c7 -7 15 -10 18 -7 3 3 -2 9 -12 12 -14 6 -15 5 -6 -5z"/>
<path d="M4730 2700 c-9 -6 -10 -10 -3 -10 6 0 15 5 18 10 8 12 4 12 -15 0z"/>
<path d="M5285 2700 c3 -5 11 -10 16 -10 6 0 7 5 4 10 -3 6 -11 10 -16 10 -6
0 -7 -4 -4 -10z"/>
<path d="M4670 2690 c-9 -6 -10 -10 -3 -10 6 0 15 5 18 10 8 12 4 12 -15 0z"/>
<path d="M5107 2643 c-4 -3 -7 -11 -7 -17 0 -6 5 -5 12 2 6 6 9 14 7 17 -3 3
-9 2 -12 -2z"/>
<path d="M5010 2636 c0 -3 9 -10 20 -16 11 -6 20 -8 20 -6 0 3 -9 10 -20 16
-11 6 -20 8 -20 6z"/>
<path d="M4728 2553 c7 -3 16 -2 19 1 4 3 -2 6 -13 5 -11 0 -14 -3 -6 -6z"/>
<path d="M4660 2546 c0 -2 7 -7 16 -10 8 -3 12 -2 9 4 -6 10 -25 14 -25 6z"/>
<path d="M4589 2538 c-8 -27 -5 -36 9 -30 10 4 12 7 4 10 -7 2 -10 8 -6 13 3
5 3 9 0 9 -3 0 -6 -1 -7 -2z"/>
<path d="M4620 2525 c0 -8 29 -12 39 -5 9 5 4 8 -13 8 -14 0 -26 -2 -26 -3z"/>
<path d="M4621 2464 c0 -11 3 -14 6 -6 3 7 2 16 -1 19 -3 4 -6 -2 -5 -13z"/>
<path d="M4860 2840 c8 -5 20 -10 25 -10 6 0 3 5 -5 10 -8 5 -19 10 -25 10 -5
0 -3 -5 5 -10z"/>
<path d="M4660 2346 c0 -2 7 -7 16 -10 8 -3 12 -2 9 4 -6 10 -25 14 -25 6z"/>
<path d="M4550 2219 c0 -5 5 -7 10 -4 6 3 10 8 10 11 0 2 -4 4 -10 4 -5 0 -10
-5 -10 -11z"/>
<path d="M2885 2000 c19 -8 73 -14 64 -6 -2 2 -22 6 -44 9 -28 5 -34 4 -20 -3z"/>
<path d="M2530 1980 c0 -5 5 -10 11 -10 5 0 7 5 4 10 -3 6 -8 10 -11 10 -2 0
-4 -4 -4 -10z"/>
<path d="M2755 1951 c-3 -5 -2 -12 3 -15 5 -3 9 1 9 9 0 17 -3 19 -12 6z"/>
<path d="M4565 1710 c-3 -6 1 -7 9 -4 18 7 21 14 7 14 -6 0 -13 -4 -16 -10z"/>
<path d="M4510 1546 c0 -2 7 -7 16 -10 8 -3 12 -2 9 4 -6 10 -25 14 -25 6z"/>
<path d="M4550 1535 c0 -8 4 -15 8 -15 5 0 9 7 9 15 0 8 -4 15 -9 15 -4 0 -8
-7 -8 -15z"/>
<path d="M4544 1494 c2 -10 8 -20 14 -22 17 -5 15 13 -2 27 -12 10 -14 9 -12
-5z"/>
<path d="M4540 1445 c0 -13 5 -27 12 -31 7 -5 9 0 6 14 -3 12 -1 23 5 25 6 2
3 6 -6 10 -13 5 -17 1 -17 -18z"/>
<path d="M1305 7298 c-4 -13 -9 -37 -10 -54 -1 -18 -6 -45 -10 -60 -13 -46
-14 -55 -19 -121 -2 -34 -7 -66 -10 -72 -11 -16 -24 -13 -29 7 -3 9 -4 1 -2
-18 2 -19 3 -54 4 -78 1 -30 5 -42 14 -39 6 2 11 13 11 25 -1 17 2 19 22 12
19 -8 22 -6 17 8 -7 16 -5 16 20 -1 23 -15 27 -15 27 -2 0 8 -3 15 -7 16 -5 0
-17 2 -28 4 -11 2 -22 -1 -26 -6 -4 -7 -9 -4 -12 5 -4 9 -3 15 1 15 22 -4 33
3 31 19 -1 9 1 33 4 52 13 62 23 240 14 240 -4 0 -3 9 3 19 12 24 13 51 1 51
-5 0 -12 -10 -16 -22z m-24 -335 c13 -16 12 -17 -3 -4 -10 7 -18 15 -18 17 0
8 8 3 21 -13z"/>
<path d="M5562 7270 c0 -14 2 -19 5 -12 2 6 2 18 0 25 -3 6 -5 1 -5 -13z"/>
<path d="M1826 7243 c-6 -14 -5 -15 5 -6 7 7 10 15 7 18 -3 3 -9 -2 -12 -12z"/>
<path d="M5562 7195 c0 -16 2 -22 5 -12 2 9 2 23 0 30 -3 6 -5 -1 -5 -18z"/>
<path d="M1806 7195 c-9 -26 -7 -32 5 -12 6 10 9 21 6 23 -2 3 -7 -2 -11 -11z"/>
<path d="M1190 7147 c0 -7 4 -17 10 -23 5 -5 10 -28 12 -51 4 -59 18 -42 18
22 0 39 -4 54 -16 59 -22 8 -24 8 -24 -7z"/>
<path d="M1767 7104 c-37 -74 -33 -83 4 -10 17 32 29 60 27 62 -2 2 -16 -21
-31 -52z"/>
<path d="M1065 7138 c-22 -5 -86 -20 -142 -35 l-103 -26 0 -54 c0 -30 4 -53
11 -53 5 0 8 3 5 8 -2 4 12 8 32 8 21 1 46 5 56 9 14 6 17 5 12 -4 -5 -8 3 -7
24 4 17 9 38 14 46 11 9 -3 12 -1 9 4 -8 13 1 13 27 -1 13 -7 18 -7 14 -1 -3
6 2 13 13 17 11 3 22 12 25 20 3 8 14 15 25 15 11 0 25 8 30 18 6 10 11 12 11
4 0 -19 17 -6 23 18 6 25 -28 43 -55 29 -11 -6 -18 -5 -20 4 -2 10 -13 11 -43
5z"/>
<path d="M4301 7104 c0 -11 3 -14 6 -6 3 7 2 16 -1 19 -3 4 -6 -2 -5 -13z"/>
<path d="M1716 6995 c-9 -26 -7 -32 5 -12 6 10 9 21 6 23 -2 3 -7 -2 -11 -11z"/>
<path d="M4291 6944 c0 -11 3 -14 6 -6 3 7 2 16 -1 19 -3 4 -6 -2 -5 -13z"/>
<path d="M5569 6940 c-4 -22 -12 -27 -84 -41 -44 -9 -170 -36 -280 -59 -110
-24 -217 -45 -237 -47 -35 -5 -37 -4 -41 29 l-4 33 -1 -36 -2 -35 -127 -28
c-71 -15 -151 -33 -180 -39 -28 -6 -49 -15 -46 -20 3 -5 -4 -6 -17 -2 -15 5
-20 4 -16 -4 5 -7 -4 -9 -26 -7 -53 6 -97 -5 -103 -25 -6 -18 -22 -20 -57 -5
-10 5 -23 6 -30 3 -7 -3 -3 -6 10 -6 12 -1 22 -5 22 -11 0 -13 -6 -13 -31 0
-16 9 -19 23 -21 103 l-2 92 -5 -95 c-6 -88 -4 -97 16 -119 12 -14 20 -28 17
-33 -3 -4 0 -8 5 -8 6 0 11 -10 11 -23 0 -13 6 -29 13 -37 10 -12 9 -12 -5 -2
-9 8 -19 9 -22 4 -3 -6 2 -13 12 -17 15 -6 15 -8 2 -18 -8 -7 -16 -19 -18 -27
-2 -8 0 -12 4 -8 4 4 13 0 20 -10 12 -15 15 -15 24 -2 5 9 10 10 10 3 0 -15
29 -10 40 7 4 7 17 11 29 7 12 -3 24 -1 27 5 4 6 22 8 43 4 27 -4 32 -3 21 5
-11 8 -7 9 17 7 18 -3 30 -1 28 3 -7 11 53 17 95 9 35 -6 38 -5 35 15 -2 19 2
22 27 20 16 -1 59 7 96 17 37 11 77 21 89 22 11 0 19 4 17 7 -5 9 26 20 37 13
5 -3 7 -10 3 -15 -3 -6 11 -3 31 5 20 9 41 14 45 11 12 -8 41 6 34 16 -3 5 7
4 21 -1 14 -5 24 -6 21 -1 -3 5 1 12 10 15 10 4 13 2 8 -7 -5 -7 -1 -6 10 2
10 8 26 15 36 16 16 1 19 -12 24 -159 3 -89 7 -215 9 -281 1 -66 6 -120 10
-120 8 0 8 161 0 409 -5 153 -1 175 22 156 9 -7 18 -10 22 -6 3 3 0 6 -7 6
-29 0 -1 10 74 25 44 9 88 14 98 12 10 -3 16 -1 12 4 -3 5 3 9 13 9 10 0 35 5
56 11 l39 10 -4 102 -3 101 33 8 c17 5 32 11 32 14 0 4 -11 3 -24 0 -20 -5
-25 -2 -28 16 -4 22 -4 22 -9 -2z m-865 -220 c-6 -6 -31 -13 -55 -16 -24 -3
-41 -3 -38 0 3 3 23 8 44 11 21 2 40 7 43 10 3 3 8 5 11 5 3 0 0 -5 -5 -10z
m-224 -50 c-20 -13 -33 -13 -25 0 3 6 14 10 23 10 15 0 15 -2 2 -10z m20 -164
c0 -2 -7 -7 -16 -10 -8 -3 -12 -2 -9 4 6 10 25 14 25 6z m-122 -31 c-3 -3 -9
2 -12 12 -6 14 -5 15 5 6 7 -7 10 -15 7 -18z"/>
<path d="M4291 6904 c0 -11 3 -14 6 -6 3 7 2 16 -1 19 -3 4 -6 -2 -5 -13z"/>
<path d="M1355 6890 c3 -5 8 -10 11 -10 2 0 4 5 4 10 0 6 -5 10 -11 10 -5 0
-7 -4 -4 -10z"/>
<path d="M3502 6790 c0 -14 2 -19 5 -12 2 6 2 18 0 25 -3 6 -5 1 -5 -13z"/>
<path d="M912 6780 c0 -14 2 -19 5 -12 2 6 2 18 0 25 -3 6 -5 1 -5 -13z"/>
<path d="M2971 6764 c0 -11 3 -14 6 -6 3 7 2 16 -1 19 -3 4 -6 -2 -5 -13z"/>
<path d="M2472 6710 c0 -19 2 -27 5 -17 2 9 2 25 0 35 -3 9 -5 1 -5 -18z"/>
<path d="M4360 6661 c0 -5 9 -7 20 -4 11 3 20 7 20 9 0 2 -9 4 -20 4 -11 0
-20 -4 -20 -9z"/>
<path d="M4270 6305 l0 -319 26 -38 c15 -21 29 -36 31 -34 3 2 -7 22 -21 43
-25 37 -26 42 -26 196 0 124 3 157 13 151 9 -6 9 -5 0 7 -7 9 -12 67 -13 159
0 79 -3 146 -5 149 -3 2 -5 -139 -5 -314z"/>
<path d="M3491 6574 c0 -11 3 -14 6 -6 3 7 2 16 -1 19 -3 4 -6 -2 -5 -13z"/>
<path d="M4305 6563 c8 -18 18 -33 20 -33 10 0 4 16 -16 40 l-20 25 16 -32z"/>
<path d="M3898 6563 c7 -3 16 -2 19 1 4 3 -2 6 -13 5 -11 0 -14 -3 -6 -6z"/>
<path d="M3748 6533 c7 -3 16 -2 19 1 4 3 -2 6 -13 5 -11 0 -14 -3 -6 -6z"/>
<path d="M3688 6523 c7 -3 16 -2 19 1 4 3 -2 6 -13 5 -11 0 -14 -3 -6 -6z"/>
<path d="M3519 6496 c-2 -3 -153 -35 -334 -71 -182 -36 -413 -84 -514 -106
-101 -21 -191 -39 -201 -39 -11 0 -20 9 -23 23 -4 19 -4 19 -6 -5 -1 -23 -7
-28 -53 -38 -148 -32 -253 -54 -348 -71 -58 -10 -134 -25 -170 -33 -158 -34
-323 -66 -336 -66 -8 0 -14 10 -15 23 -1 22 -1 22 -8 -2 -5 -18 0 -31 21 -53
15 -17 25 -34 22 -39 -3 -5 1 -12 10 -15 12 -5 14 -30 11 -162 -4 -156 -10
-253 -21 -344 -6 -48 -1 -55 24 -40 13 9 17 37 26 177 15 219 19 261 27 270 5
5 9 -12 9 -41 l0 -50 38 3 c35 2 29 -1 -27 -13 -13 -3 -21 -7 -19 -10 8 -8
222 28 233 39 7 7 4 8 -7 4 -10 -4 -18 -2 -18 3 0 6 8 10 18 11 14 0 14 2 -3
9 -17 7 -17 9 -2 9 12 1 17 9 17 31 0 17 5 30 10 30 6 0 8 -10 6 -22 -5 -23
-10 -86 -22 -297 l-7 -113 29 6 c16 3 49 8 74 11 40 6 46 10 48 33 3 40 12 39
12 -1 0 -34 2 -36 23 -28 13 5 30 5 38 1 16 -10 9 -19 -17 -24 -150 -28 -580
-96 -603 -96 -13 0 -21 -6 -21 -16 0 -12 6 -15 23 -11 12 4 94 18 182 32 88
14 171 28 185 30 14 3 45 7 70 11 25 3 52 7 61 10 22 6 75 13 162 20 103 8
126 12 182 28 28 7 67 16 85 20 19 3 73 12 120 21 112 19 126 19 110 0 -7 -8
-23 -43 -35 -77 -12 -34 -28 -64 -35 -66 -9 -3 -11 1 -7 12 4 10 3 15 -3 11
-6 -3 -10 -13 -10 -21 0 -16 35 -19 45 -4 3 5 13 7 23 4 14 -5 14 -4 3 4 -12
9 -13 17 -2 54 7 24 22 57 34 75 18 26 30 33 72 39 27 3 57 8 65 9 40 7 217
37 235 40 128 18 491 78 498 82 13 8 -15 23 -33 18 -13 -4 -183 -34 -280 -49
-19 -3 -62 -10 -95 -16 -33 -5 -148 -23 -255 -40 -107 -17 -215 -35 -240 -40
-42 -8 -87 -14 -200 -26 -25 -3 -51 -7 -57 -9 -7 -3 -13 -1 -13 3 0 5 23 16
52 27 29 10 46 21 38 23 -8 3 -17 8 -20 11 -3 3 -28 17 -56 29 -38 18 -59 22
-90 17 -52 -9 -233 -45 -260 -51 -14 -4 -23 0 -28 11 -3 9 -2 14 2 11 4 -2 50
4 102 14 52 11 121 22 153 26 31 4 60 11 63 15 3 5 -5 8 -18 6 -22 -2 -23 1
-20 63 1 36 5 87 8 114 l6 49 -28 -6 c-16 -3 -75 -14 -131 -24 l-103 -17 0
-52 c0 -96 -12 -174 -27 -174 -9 0 -12 8 -9 25 3 15 0 25 -7 25 -7 0 -7 4 2 9
11 7 6 11 -20 14 l-34 4 33 1 c28 2 32 5 33 32 1 17 2 40 3 53 1 16 -6 24 -24
28 -25 7 -25 7 4 8 21 1 27 5 22 16 -3 8 0 15 7 16 7 0 3 5 -8 10 -16 7 -13 8
12 4 34 -5 43 13 13 27 -12 5 -12 7 3 7 10 1 18 9 18 21 2 33 4 38 12 46 4 4
7 -13 7 -38 0 -32 5 -48 16 -52 8 -3 13 -2 10 3 -3 5 21 12 54 16 l60 7 2 41
c1 38 2 39 5 9 4 -34 7 -36 58 -46 17 -4 25 -3 18 2 -8 5 16 13 64 21 42 7 83
15 91 19 9 3 13 1 9 -5 -4 -6 -30 -14 -58 -18 -27 -4 -48 -9 -45 -12 2 -2 29
-2 60 2 l56 7 0 64 c0 36 4 64 10 64 8 0 13 -26 9 -57 0 -4 8 -10 18 -14 17
-7 17 -8 0 -8 -27 -1 -17 -35 13 -42 l25 -7 -26 -1 c-25 -1 -26 -4 -25 -42 2
-42 19 -62 46 -54 13 4 15 -13 13 -116 l-2 -120 32 6 c17 4 34 9 36 11 2 1 5
47 8 101 3 54 9 102 14 107 10 11 12 -10 10 -126 -1 -43 2 -78 6 -78 4 0 52 7
106 17 96 16 97 17 97 45 0 15 4 28 9 28 4 0 7 -12 5 -26 -2 -25 -1 -26 34
-20 20 3 45 6 56 6 12 0 16 5 12 15 -3 9 1 18 9 21 22 9 7 26 -16 19 -10 -4
-19 -4 -19 0 0 9 71 37 78 31 3 -3 0 -6 -6 -6 -8 0 -9 -7 -2 -24 7 -19 5 -26
-13 -35 -20 -9 -18 -10 13 -8 34 3 35 4 36 50 0 26 3 50 7 53 3 3 6 90 7 192
0 106 5 191 10 196 10 10 12 -26 10 -322 -1 -157 0 -163 18 -157 11 3 37 8 58
10 21 3 39 6 40 8 2 2 13 381 14 475 0 23 4 42 9 42 5 0 8 -28 6 -62 -1 -35 3
-69 8 -75 6 -8 6 -13 0 -13 -5 0 -9 -27 -9 -60 1 -33 5 -60 9 -60 5 0 5 -5 1
-11 -4 -6 -8 -62 -10 -124 l-4 -113 58 13 c31 7 87 16 123 20 36 4 71 10 76
14 9 5 23 344 27 656 1 44 4 50 24 53 12 2 22 8 22 13 0 10 -4 12 -11 5z
m-366 -213 c-7 -2 -19 -2 -25 0 -7 3 -2 5 12 5 14 0 19 -2 13 -5z m-187 -75
c4 -6 3 -8 -3 -5 -6 4 -24 2 -41 -3 -18 -5 -34 -5 -37 0 -3 5 9 11 27 13 18 2
36 5 40 5 4 1 10 -3 14 -10z m-109 -70 c-3 -8 -6 -5 -6 6 -1 11 2 17 5 13 3
-3 4 -12 1 -19z m-390 6 c-3 -3 -12 -4 -19 -1 -8 3 -5 6 6 6 11 1 17 -2 13 -5z
m-60 -10 c-3 -3 -12 -4 -19 -1 -8 3 -5 6 6 6 11 1 17 -2 13 -5z m80 -10 c-3
-3 -12 -4 -19 -1 -8 3 -5 6 6 6 11 1 17 -2 13 -5z m135 -144 l3 -125 -30 -2
c-16 -1 -22 1 -12 3 15 5 17 20 17 123 0 101 5 140 16 128 2 -1 4 -59 6 -127z
m234 83 c-2 -27 -5 -112 -5 -190 -1 -88 -5 -143 -11 -143 -6 0 -8 51 -4 143 6
123 8 159 13 225 1 6 4 12 7 12 3 0 3 -21 0 -47z m-511 27 c-28 -12 -57 -12
-50 0 3 6 21 10 38 9 27 0 29 -2 12 -9z m-160 -20 c-11 -5 -27 -9 -35 -9 -9 0
-8 4 5 9 11 5 27 9 35 9 9 0 8 -4 -5 -9z m-90 -20 c-27 -12 -43 -12 -25 0 8 5
22 9 30 9 10 0 8 -3 -5 -9z m332 -16 c-3 -3 -12 -4 -19 -1 -8 3 -5 6 6 6 11 1
17 -2 13 -5z m-467 -14 c-14 -4 -43 -8 -65 -8 -38 0 -39 1 -10 8 17 4 46 8 65
8 32 0 33 -1 10 -8z m423 3 c-7 -2 -19 -2 -25 0 -7 3 -2 5 12 5 14 0 19 -2 13
-5z m364 -9 c-3 -3 -12 -4 -19 -1 -8 3 -5 6 6 6 11 1 17 -2 13 -5z m-9 -29
c-2 -1 -16 -5 -33 -9 l-30 -6 25 14 c14 8 28 12 33 9 5 -3 7 -6 5 -8z m49 9
c-3 -3 -12 -4 -19 -1 -8 3 -5 6 6 6 11 1 17 -2 13 -5z m-1017 -14 c0 -5 -15
-10 -32 -11 -32 0 -52 -3 -110 -14 -48 -8 -30 11 20 22 63 14 122 15 122 3z
m657 4 c-3 -3 -12 -4 -19 -1 -8 3 -5 6 6 6 11 1 17 -2 13 -5z m560 -14 c-1
-11 -8 -20 -17 -20 -10 -1 -6 -6 10 -16 24 -14 24 -15 2 -11 -12 3 -20 1 -16
-4 3 -5 15 -9 27 -10 20 -1 20 -2 -3 -9 -14 -4 -19 -8 -11 -9 8 -1 12 -3 9 -6
-13 -13 -35 8 -32 31 3 27 3 27 -21 18 -13 -5 -14 -8 -3 -15 10 -7 9 -9 -4 -9
-10 0 -16 7 -15 19 0 11 7 17 14 14 6 -3 22 6 35 20 13 14 24 25 25 26 1 1 1
-8 0 -19z m-604 3 c-7 -2 -19 -2 -25 0 -7 3 -2 5 12 5 14 0 19 -2 13 -5z m124
1 c-3 -3 -12 -4 -19 -1 -8 3 -5 6 6 6 11 1 17 -2 13 -5z m50 -9 c0 -8 -4 -12
-9 -9 -5 3 -6 10 -3 15 9 13 12 11 12 -6z m-224 -2 c-7 -2 -21 -2 -30 0 -10 3
-4 5 12 5 17 0 24 -2 18 -5z m-70 -10 c-7 -2 -19 -2 -25 0 -7 3 -2 5 12 5 14
0 19 -2 13 -5z m832 -3 c-3 -5 -12 -10 -18 -10 -7 0 -6 4 3 10 19 12 23 12 15
0z m-320 -10 c-3 -5 0 -10 7 -10 9 0 9 -3 -2 -10 -8 -5 -24 -9 -35 -9 -16 1
-16 2 5 9 14 4 19 8 12 9 -15 1 -6 21 9 21 6 0 7 -4 4 -10z m-642 -7 c-7 -2
-19 -2 -25 0 -7 3 -2 5 12 5 14 0 19 -2 13 -5z m594 1 c-3 -3 -12 -4 -19 -1
-8 3 -5 6 6 6 11 1 17 -2 13 -5z m-650 -10 c-3 -3 -12 -4 -19 -1 -8 3 -5 6 6
6 11 1 17 -2 13 -5z m430 0 c-3 -3 -12 -4 -19 -1 -8 3 -5 6 6 6 11 1 17 -2 13
-5z m603 -4 c-8 -5 -19 -10 -25 -10 -5 0 -3 5 5 10 8 5 20 10 25 10 6 0 3 -5
-5 -10z m-396 -14 c-3 -8 -12 -12 -21 -9 -12 5 -12 7 -1 14 20 13 28 11 22 -5z
m-757 -2 c-3 -3 -12 -4 -19 -1 -8 3 -5 6 6 6 11 1 17 -2 13 -5z m1180 0 c-3
-3 -12 -4 -19 -1 -8 3 -5 6 6 6 11 1 17 -2 13 -5z m-371 -11 c-4 -5 -11 -8
-14 -9 -4 0 -14 -3 -22 -7 -8 -3 -33 -8 -55 -11 -39 -5 -39 -5 -15 9 14 8 32
12 40 10 8 -3 22 0 30 5 18 11 47 13 36 3z m47 0 c-7 -2 -19 -2 -25 0 -7 3 -2
5 12 5 14 0 19 -2 13 -5z m-298 -13 c-3 -5 -12 -10 -18 -10 -7 0 -6 4 3 10 19
12 23 12 15 0z m425 6 c0 -11 -19 -15 -25 -6 -3 5 1 10 9 10 9 0 16 -2 16 -4z
m175 -16 c-3 -5 -12 -10 -18 -10 -7 0 -6 4 3 10 19 12 23 12 15 0z m-1162 -17
c-7 -2 -21 -2 -30 0 -10 3 -4 5 12 5 17 0 24 -2 18 -5z m607 -3 c0 -5 -4 -10
-10 -10 -5 0 -10 5 -10 10 0 6 5 10 10 10 6 0 10 -4 10 -10z m-823 -6 c-3 -3
-12 -4 -19 -1 -8 3 -5 6 6 6 11 1 17 -2 13 -5z m86 -11 c-7 -2 -21 -2 -30 0
-10 3 -4 5 12 5 17 0 24 -2 18 -5z m-60 -10 c-7 -2 -21 -2 -30 0 -10 3 -4 5
12 5 17 0 24 -2 18 -5z m1233 -12 c-13 -15 -14 -20 -4 -24 8 -4 7 -6 -4 -6
-30 -2 -33 0 -40 19 -5 14 -3 18 11 15 10 -2 24 1 32 6 22 14 24 11 5 -10z
m124 -31 c-8 -5 -22 -9 -30 -9 -10 0 -8 3 5 9 27 12 43 12 25 0z m15 -20 c8
-13 -13 -40 -29 -39 -7 0 -6 2 2 6 22 9 14 31 -10 27 -21 -4 -22 -4 -3 5 27
13 33 13 40 1z m-394 -11 c23 -14 -13 -43 -41 -34 -17 6 -19 9 -9 16 10 6 8
10 -11 17 -23 9 -22 10 11 10 20 0 42 -4 50 -9z m46 -5 c-3 -3 -12 -4 -19 -1
-8 3 -5 6 6 6 11 1 17 -2 13 -5z m-17 -24 c0 -5 -5 -10 -11 -10 -5 0 -7 5 -4
10 3 6 8 10 11 10 2 0 4 -4 4 -10z m-540 -20 c0 -5 -8 -10 -17 -10 -15 0 -16
2 -3 10 19 12 20 12 20 0z"/>
<path d="M2709 5741 c11 -7 11 -9 0 -14 -10 -4 -9 -6 3 -6 23 -1 32 15 12 23
-23 9 -31 7 -15 -3z"/>
<path d="M2452 6450 c0 -19 2 -27 5 -17 2 9 2 25 0 35 -3 9 -5 1 -5 -18z"/>
<path d="M4361 6374 c0 -11 3 -14 6 -6 3 7 2 16 -1 19 -3 4 -6 -2 -5 -13z"/>
<path d="M1068 6363 c7 -3 16 -2 19 1 4 3 -2 6 -13 5 -11 0 -14 -3 -6 -6z"/>
<path d="M1533 6330 c0 -25 2 -35 4 -22 2 12 2 32 0 45 -2 12 -4 2 -4 -23z"/>
<path d="M1018 6353 c7 -3 16 -2 19 1 4 3 -2 6 -13 5 -11 0 -14 -3 -6 -6z"/>
<path d="M978 6343 c7 -3 16 -2 19 1 4 3 -2 6 -13 5 -11 0 -14 -3 -6 -6z"/>
<path d="M928 6333 c7 -3 16 -2 19 1 4 3 -2 6 -13 5 -11 0 -14 -3 -6 -6z"/>
<path d="M842 6317 l-34 -10 4 -87 c2 -63 7 -91 19 -103 18 -18 18 -18 35 140
5 52 10 63 28 66 19 4 19 4 1 5 -11 0 -35 -5 -53 -11z"/>
<path d="M4360 6305 c0 -8 2 -15 4 -15 2 0 6 7 10 15 3 8 1 15 -4 15 -6 0 -10
-7 -10 -15z"/>
<path d="M1523 6210 c0 -30 2 -43 4 -27 2 15 2 39 0 55 -2 15 -4 2 -4 -28z"/>
<path d="M810 5953 c0 -156 16 -154 27 3 7 95 6 111 -6 106 -9 -3 -12 -1 -7 6
4 7 2 12 -3 12 -7 0 -11 -44 -11 -127z"/>
<path d="M5570 6073 c-14 -2 -101 -17 -195 -33 -203 -35 -1069 -178 -1105
-182 -14 -2 -24 -7 -22 -13 2 -5 11 -9 20 -7 9 1 28 5 42 7 24 3 284 46 490
81 52 8 131 22 175 30 126 23 585 94 610 94 12 0 28 7 35 15 13 16 6 17 -50 8z"/>
<path d="M2190 5920 c0 -5 5 -10 11 -10 5 0 7 5 4 10 -3 6 -8 10 -11 10 -2 0
-4 -4 -4 -10z"/>
<path d="M2380 5919 c-21 -7 -18 -8 13 -5 21 2 41 7 44 10 9 9 -27 6 -57 -5z"/>
<path d="M2408 5902 c-15 -6 -14 -9 7 -19 22 -10 25 -9 25 8 0 20 -5 22 -32
11z"/>
<path d="M2326 5875 c-2 -7 -6 -53 -7 -101 l-2 -87 44 -23 c24 -13 47 -23 50
-24 4 0 7 41 8 92 1 50 4 95 7 99 2 4 -18 19 -45 33 -38 19 -51 21 -55 11z"/>
<path d="M4178 5873 c7 -3 16 -2 19 1 4 3 -2 6 -13 5 -11 0 -14 -3 -6 -6z"/>
<path d="M4138 5863 c7 -3 16 -2 19 1 4 3 -2 6 -13 5 -11 0 -14 -3 -6 -6z"/>
<path d="M3910 5830 c-35 -7 -35 -7 -5 -9 17 0 37 4 45 9 17 11 11 11 -40 0z"/>
<path d="M3833 5813 c9 -2 23 -2 30 0 6 3 -1 5 -18 5 -16 0 -22 -2 -12 -5z"/>
<path d="M1765 5800 c-22 -4 -62 -11 -88 -14 -45 -7 -48 -9 -45 -34 2 -15 10
-30 18 -34 13 -6 13 -7 -1 -7 -19 -1 -33 -61 -15 -61 7 0 7 -3 1 -8 -12 -8
-11 -4 -19 -103 l-6 -76 116 17 c63 10 117 20 119 22 2 1 6 67 10 146 6 116 5
142 -6 142 -11 0 -11 3 1 10 18 12 -24 12 -85 0z m-92 -37 c-7 -2 -19 -2 -25
0 -7 3 -2 5 12 5 14 0 19 -2 13 -5z m64 -9 c-3 -3 -12 -4 -19 -1 -8 3 -5 6 6
6 11 1 17 -2 13 -5z m-60 -10 c-3 -3 -12 -4 -19 -1 -8 3 -5 6 6 6 11 1 17 -2
13 -5z m20 -20 c-3 -3 -12 -4 -19 -1 -8 3 -5 6 6 6 11 1 17 -2 13 -5z m126
-31 c-7 -2 -21 -2 -30 0 -10 3 -4 5 12 5 17 0 24 -2 18 -5z m-86 -9 c-3 -3
-12 -4 -19 -1 -8 3 -5 6 6 6 11 1 17 -2 13 -5z m-60 -10 c-3 -3 -12 -4 -19 -1
-8 3 -5 6 6 6 11 1 17 -2 13 -5z m96 -11 c-7 -2 -21 -2 -30 0 -10 3 -4 5 12 5
17 0 24 -2 18 -5z m-65 -10 c-10 -2 -28 -2 -40 0 -13 2 -5 4 17 4 22 1 32 -1
23 -4z m139 1 c-3 -3 -12 -4 -19 -1 -8 3 -5 6 6 6 11 1 17 -2 13 -5z m-114
-21 c-7 -2 -21 -2 -30 0 -10 3 -4 5 12 5 17 0 24 -2 18 -5z"/>
<path d="M811 5784 c0 -11 3 -14 6 -6 3 7 2 16 -1 19 -3 4 -6 -2 -5 -13z"/>
<path d="M3510 5790 c0 -5 5 -10 11 -10 5 0 7 5 4 10 -3 6 -8 10 -11 10 -2 0
-4 -4 -4 -10z"/>
<path d="M3598 5773 c7 -3 16 -2 19 1 4 3 -2 6 -13 5 -11 0 -14 -3 -6 -6z"/>
<path d="M3538 5763 c7 -3 16 -2 19 1 4 3 -2 6 -13 5 -11 0 -14 -3 -6 -6z"/>
<path d="M970 5724 l-55 -13 55 6 c30 3 59 9 65 14 11 11 6 11 -65 -7z"/>
<path d="M888 5703 c7 -3 16 -2 19 1 4 3 -2 6 -13 5 -11 0 -14 -3 -6 -6z"/>
<path d="M811 5664 c0 -11 3 -14 6 -6 3 7 2 16 -1 19 -3 4 -6 -2 -5 -13z"/>
<path d="M3772 5630 c-9 -23 -8 -33 4 -45 25 -24 54 -2 54 40 0 30 -3 35 -24
35 -18 0 -27 -8 -34 -30z m42 -7 c-9 -39 -15 -47 -24 -33 -11 17 1 60 16 60
11 0 13 -7 8 -27z"/>
<path d="M3345 5620 c-4 -16 -6 -32 -6 -35 0 -2 -4 -19 -9 -36 -11 -37 -6 -51
16 -42 10 4 12 8 5 12 -7 5 -8 19 -2 41 19 74 21 90 12 90 -5 0 -12 -13 -16
-30z"/>
<path d="M3676 5619 c-9 -48 -7 -59 10 -59 8 0 12 4 9 10 -3 5 -2 26 4 45 7
27 6 35 -4 35 -7 0 -15 -14 -19 -31z"/>
<path d="M3555 5603 c-4 -16 -8 -36 -10 -45 -2 -10 1 -18 6 -18 10 0 14 8 23
52 4 19 11 26 21 22 8 -4 15 -1 15 5 0 6 -11 11 -25 11 -19 0 -26 -6 -30 -27z"/>
<path d="M3436 5601 c-24 -26 -18 -76 9 -76 25 0 52 52 38 74 -14 23 -28 23
-47 2z m28 -29 c-9 -39 -24 -51 -24 -20 0 35 10 59 21 52 5 -3 6 -17 3 -32z"/>
<path d="M3204 5554 c-17 -24 -16 -71 1 -66 6 2 9 10 7 19 -5 24 7 63 19 63 6
0 9 -16 7 -37 -2 -27 1 -38 11 -38 8 0 14 15 16 41 3 38 1 42 -22 42 -14 0
-30 -10 -39 -24z"/>
<path d="M2827 5510 c-22 -77 -21 -82 5 -78 29 4 54 48 43 74 -8 18 -8 18 -12
-1 -10 -55 -14 -65 -23 -65 -12 0 -13 43 -1 56 12 13 22 74 12 74 -4 0 -15
-27 -24 -60z"/>
<path d="M4730 5555 c0 -13 -4 -14 -20 -5 -15 8 -25 8 -38 0 -15 -10 -14 -10
5 -5 12 3 24 2 27 -3 3 -5 -11 -7 -32 -4 -76 10 -133 7 -142 -8 -5 -8 -10 -11
-10 -7 0 4 -9 3 -20 -3 -11 -6 -17 -16 -14 -22 4 -6 3 -8 -4 -4 -20 12 -81
-111 -66 -136 3 -4 0 -8 -7 -8 -6 0 -9 -8 -6 -20 3 -11 1 -20 -4 -20 -5 0 -9
-12 -9 -26 0 -16 4 -23 12 -18 7 5 8 3 4 -5 -10 -16 22 -51 46 -51 28 0 79 29
110 61 32 35 43 36 45 7 3 -32 32 -50 67 -43 40 7 78 33 70 47 -5 7 -3 8 5 4
16 -10 51 22 44 40 -3 8 -9 11 -14 8 -5 -3 -7 -8 -5 -12 2 -4 -7 -8 -21 -8
-23 -2 -24 1 -19 35 3 20 15 73 26 119 25 104 25 102 -5 102 -16 0 -25 -6 -25
-15z m-100 -59 c14 -18 9 -96 -8 -114 -7 -8 -10 -18 -6 -23 3 -5 2 -8 -3 -7
-5 2 -20 -7 -33 -20 -33 -31 -58 -44 -64 -34 -6 10 29 165 44 193 13 22 52 25
70 5z m-120 -76 c0 -5 -2 -10 -4 -10 -3 0 -8 5 -11 10 -3 6 -1 10 4 10 6 0 11
-4 11 -10z"/>
<path d="M3104 5552 c-15 -2 -24 -13 -28 -34 -8 -41 -8 -48 3 -48 5 0 12 16
15 35 4 20 11 33 16 30 5 -3 12 0 15 6 9 13 5 16 -21 11z"/>
<path d="M2954 5504 c-10 -23 -12 -40 -6 -46 6 -6 12 5 17 31 4 26 12 41 21
41 11 0 13 -7 8 -27 -4 -16 -11 -34 -17 -40 -6 -9 -6 -13 1 -13 16 0 34 37 30
63 -5 38 -37 33 -54 -9z"/>
<path d="M3801 5511 l-34 -6 -38 -165 c-32 -139 -36 -169 -26 -190 20 -42 64
-39 126 10 38 30 50 45 42 53 -7 7 -16 5 -31 -8 -40 -36 -39 -25 19 233 l19
82 -22 -1 c-11 -1 -36 -4 -55 -8z"/>
<path d="M2700 5485 c-18 -22 -19 -81 0 -76 8 2 22 4 30 3 9 0 15 9 15 21 1
12 4 32 9 45 6 19 4 22 -17 22 -14 0 -30 -7 -37 -15z m31 -32 c-4 -15 -12 -28
-19 -31 -15 -5 -15 8 -2 43 13 34 31 24 21 -12z"/>
<path d="M4184 5481 c4 -5 -3 -7 -14 -4 -11 3 -20 0 -20 -6 0 -6 -8 -11 -17
-11 -15 0 -16 2 -3 10 12 8 10 10 -11 10 -14 0 -26 -6 -27 -12 -1 -7 -10 -49
-21 -93 -35 -139 -34 -130 -18 -117 11 9 18 7 33 -9 l19 -22 -32 5 c-31 4 -33
2 -33 -24 0 -51 64 -62 118 -21 67 51 77 62 66 73 -8 8 -18 5 -37 -10 -14 -11
-28 -16 -31 -12 -3 5 6 56 19 113 14 57 27 112 29 122 3 10 -2 17 -11 17 -8 0
-12 -4 -9 -9z"/>
<path d="M5310 5485 c0 -7 30 -13 34 -7 3 4 -4 9 -15 9 -10 1 -19 0 -19 -2z"/>
<path d="M5216 5448 c-8 -13 -17 -34 -20 -48 l-7 -25 14 24 c11 18 16 20 20
10 6 -15 11 13 8 40 -2 8 2 10 10 5 8 -4 10 -3 5 4 -10 17 -14 15 -30 -10z"/>
<path d="M5316 5455 c15 -12 15 -14 2 -9 -13 4 -19 -3 -27 -34 -7 -24 -8 -49
-3 -63 8 -22 9 -22 15 8 3 16 3 40 0 52 -4 15 -1 21 10 21 22 0 32 20 16 31
-23 15 -34 10 -13 -6z"/>
<path d="M3500 5422 c0 -29 -3 -32 -40 -38 -22 -4 -43 -10 -45 -14 -3 -5 -21
-4 -40 1 -42 12 -97 -10 -122 -48 -25 -37 -63 -151 -63 -186 0 -80 59 -100
124 -42 l39 34 27 -29 c16 -17 31 -30 34 -30 18 0 86 37 86 46 0 7 7 14 15 18
8 3 15 11 14 18 0 10 -2 10 -6 0 -4 -10 -8 -10 -19 -1 -10 8 -14 8 -14 0 0 -6
-5 -11 -11 -11 -13 0 -3 68 12 87 6 6 11 38 12 72 1 33 5 61 8 61 7 0 0 82 -7
89 -2 2 -4 -10 -4 -27z m-111 -104 c17 -47 -24 -150 -74 -182 -22 -15 -26 -15
-31 -2 -9 24 33 179 52 193 26 19 44 16 53 -9z"/>
<path d="M1032 5375 c0 -16 2 -22 5 -12 2 9 2 23 0 30 -3 6 -5 -1 -5 -18z"/>
<path d="M2985 5383 c-11 -2 -30 -6 -42 -9 -13 -2 -23 -10 -23 -17 0 -40 -23
-87 -45 -93 -31 -8 -42 -46 -12 -42 25 3 25 6 2 -90 -16 -67 -16 -74 -1 -97
21 -32 63 -33 102 -3 35 27 44 38 44 57 0 10 -8 7 -25 -9 -31 -29 -32 -20 -9
76 10 45 24 76 40 91 28 25 31 43 8 43 -10 0 -14 6 -11 14 3 8 9 31 13 50 7
38 4 39 -41 29z"/>
<path d="M5183 5354 c-7 -18 6 -45 24 -51 6 -2 8 6 6 22 -3 14 -10 25 -17 25
-6 0 -4 5 4 10 10 7 11 10 2 10 -7 0 -15 -7 -19 -16z"/>
<path d="M4980 5331 c0 -17 2 -31 4 -31 8 0 13 51 5 56 -5 3 -9 -9 -9 -25z"/>
<path d="M5260 5339 c0 -5 5 -7 10 -4 6 3 10 8 10 11 0 2 -4 4 -10 4 -5 0 -10
-5 -10 -11z"/>
<path d="M1969 5306 c-2 -2 -33 -7 -69 -11 -36 -4 -73 -9 -84 -11 -53 -10
-101 -74 -90 -119 8 -33 33 -15 27 19 -6 29 12 40 76 50 38 6 43 4 37 -10 -3
-9 -11 -36 -17 -59 -7 -28 -18 -45 -30 -48 -22 -6 -26 -37 -5 -37 12 0 11 -12
-5 -72 -29 -103 -58 -130 -101 -92 -16 16 -18 15 -24 -1 -10 -25 29 -55 71
-55 68 0 131 71 156 175 7 27 18 56 26 64 8 8 12 23 9 34 -3 11 4 54 15 95 18
66 21 90 8 78z"/>
<path d="M1022 5275 c0 -16 2 -22 5 -12 2 9 2 23 0 30 -3 6 -5 -1 -5 -18z"/>
<path d="M2638 5263 c-34 -4 -39 -8 -47 -41 -6 -20 -17 -62 -25 -92 -16 -57
-72 -138 -87 -123 -4 4 5 60 21 123 16 63 30 116 30 118 0 1 -11 0 -25 -3 -14
-3 -36 -7 -49 -10 -22 -4 -27 -16 -50 -117 -30 -130 -31 -138 -13 -162 19 -26
65 -14 108 28 l34 34 17 -29 c10 -16 26 -29 37 -29 25 0 115 77 101 85 -6 4
-18 1 -26 -6 -8 -6 -17 -9 -20 -7 -3 3 6 53 20 112 28 114 30 127 19 124 -5
-1 -25 -3 -45 -5z"/>
<path d="M2136 5201 l-39 -6 -28 -110 c-53 -201 -51 -185 -17 -185 43 0 66 16
73 52 15 73 48 174 62 190 10 12 24 15 43 12 21 -5 28 -2 32 13 3 10 3 24 1
31 -6 15 -45 16 -61 0 -9 -9 -12 -9 -12 0 0 7 -3 11 -7 11 -5 -1 -25 -5 -47
-8z"/>
<path d="M1001 5094 c0 -11 3 -14 6 -6 3 7 2 16 -1 19 -3 4 -6 -2 -5 -13z"/>
<path d="M828 5063 c-28 -4 -28 -5 -28 -86 0 -45 -3 -348 -7 -674 -5 -502 -4
-595 8 -609 8 -10 9 -15 3 -11 -6 3 -11 0 -11 -7 0 -8 7 -12 15 -8 10 3 13 1
8 -6 -6 -9 -1 -9 19 0 26 12 26 12 5 23 -11 6 -17 14 -14 18 4 4 -1 7 -12 7
-14 1 -9 6 16 21 19 11 27 18 18 15 -10 -3 -26 -9 -35 -12 -10 -3 -8 1 5 8 12
8 20 17 16 20 -3 4 4 12 16 18 18 10 19 14 8 27 -14 18 -19 63 -6 63 4 0 8 5
8 10 0 7 -8 6 -22 -1 -21 -11 -22 -11 -9 5 12 14 11 19 -3 35 -13 14 -14 21
-5 27 7 4 10 3 5 -4 -4 -6 4 -16 16 -23 22 -11 22 -11 8 6 -14 17 -13 17 10
11 l25 -7 -24 14 c-18 11 -21 16 -10 21 8 3 4 3 -8 1 -12 -3 -24 -1 -28 5 -3
5 -1 10 5 10 6 0 8 5 5 10 -3 6 0 10 7 10 9 0 9 3 2 8 -11 7 -16 102 -5 102 3
0 7 28 7 63 2 124 3 130 20 123 8 -3 13 -2 9 3 -3 5 1 12 7 15 7 3 2 4 -12 1
-14 -3 -20 -2 -13 1 7 3 10 22 7 51 -3 35 -1 44 9 40 9 -3 13 4 12 24 0 16 -4
29 -10 29 -5 0 -3 5 5 10 10 6 11 10 3 10 -9 0 -13 17 -13 50 0 48 1 50 28 50
15 0 34 5 42 10 11 7 5 8 -21 5 -36 -4 -36 -4 -35 33 1 20 5 42 9 49 4 6 3 14
-3 18 -6 4 -7 11 -4 17 4 6 6 37 5 70 -1 42 2 58 11 58 9 0 9 3 -2 10 -8 5
-10 10 -5 10 6 0 11 24 12 53 3 111 5 124 16 125 7 0 26 5 42 11 29 10 29 11
-12 8 -24 -1 -43 1 -43 5 0 8 -23 8 -72 1z"/>
<path d="M992 4980 c0 -14 2 -19 5 -12 2 6 2 18 0 25 -3 6 -5 1 -5 -13z"/>
<path d="M3480 4965 c0 -24 -28 -30 -260 -60 -118 -15 -282 -35 -364 -46 -82
-10 -177 -21 -210 -24 -34 -3 -71 -8 -83 -10 -12 -3 -102 -14 -200 -25 -98
-11 -226 -26 -286 -34 -59 -8 -130 -16 -157 -17 -28 -2 -50 -4 -50 -5 0 -1 18
-20 40 -41 l40 -39 -3 -96 c-2 -59 1 -94 7 -91 6 4 6 -15 2 -48 -4 -30 -9 -65
-10 -79 -2 -14 -6 -35 -10 -47 -9 -28 -12 -28 195 -8 634 61 1230 114 1310
116 29 1 35 3 17 6 -26 4 -27 7 -23 51 3 36 14 359 15 450 0 19 30 14 30 -5 0
-13 4 -11 13 7 7 14 10 26 6 28 -5 2 -5 10 -2 18 3 8 0 14 -6 14 -6 0 -11 -7
-11 -15z m-1028 -362 c-6 -65 -10 -70 -11 -15 0 28 3 52 7 52 4 0 6 -17 4 -37z
m515 -115 c-2 -18 -4 -4 -4 32 0 36 2 50 4 33 2 -18 2 -48 0 -65z"/>
<path d="M971 4764 c0 -11 3 -14 6 -6 3 7 2 16 -1 19 -3 4 -6 -2 -5 -13z"/>
<path d="M1838 4743 c7 -3 16 -2 19 1 4 3 -2 6 -13 5 -11 0 -14 -3 -6 -6z"/>
<path d="M963 4639 c-2 -23 3 -25 10 -4 4 8 3 16 -1 19 -4 3 -9 -4 -9 -15z"/>
<path d="M3978 4463 c6 -2 18 -2 25 0 6 3 1 5 -13 5 -14 0 -19 -2 -12 -5z"/>
<path d="M3753 4443 c9 -2 25 -2 35 0 9 3 1 5 -18 5 -19 0 -27 -2 -17 -5z"/>
<path d="M3638 4433 c7 -3 16 -2 19 1 4 3 -2 6 -13 5 -11 0 -14 -3 -6 -6z"/>
<path d="M3568 4423 c7 -3 16 -2 19 1 4 3 -2 6 -13 5 -11 0 -14 -3 -6 -6z"/>
<path d="M1382 4330 c0 -19 2 -27 5 -17 2 9 2 25 0 35 -3 9 -5 1 -5 -18z"/>
<path d="M1793 4263 c9 -2 25 -2 35 0 9 3 1 5 -18 5 -19 0 -27 -2 -17 -5z"/>
<path d="M1703 4253 c9 -2 23 -2 30 0 6 3 -1 5 -18 5 -16 0 -22 -2 -12 -5z"/>
<path d="M1578 4243 c12 -2 30 -2 40 0 9 3 -1 5 -23 4 -22 0 -30 -2 -17 -4z"/>
<path d="M1473 4233 c9 -2 25 -2 35 0 9 3 1 5 -18 5 -19 0 -27 -2 -17 -5z"/>
<path d="M1373 4223 c9 -2 25 -2 35 0 9 3 1 5 -18 5 -19 0 -27 -2 -17 -5z"/>
<path d="M1833 4190 c0 -25 2 -35 4 -22 2 12 2 32 0 45 -2 12 -4 2 -4 -23z"/>
<path d="M1253 4213 c9 -2 25 -2 35 0 9 3 1 5 -18 5 -19 0 -27 -2 -17 -5z"/>
<path d="M1055 4200 c-3 -5 1 -10 10 -10 9 0 13 5 10 10 -3 6 -8 10 -10 10 -2
0 -7 -4 -10 -10z"/>
<path d="M1168 4203 c6 -2 18 -2 25 0 6 3 1 5 -13 5 -14 0 -19 -2 -12 -5z"/>
<path d="M1371 4184 c0 -11 3 -14 6 -6 3 7 2 16 -1 19 -3 4 -6 -2 -5 -13z"/>
<path d="M923 4105 c0 -22 2 -30 4 -17 2 12 2 30 0 40 -3 9 -5 -1 -4 -23z"/>
<path d="M1362 4050 c0 -19 2 -27 5 -17 2 9 2 25 0 35 -3 9 -5 1 -5 -18z"/>
<path d="M1352 3915 c0 -16 2 -22 5 -12 2 9 2 23 0 30 -3 6 -5 -1 -5 -18z"/>
<path d="M850 3770 c-8 -5 -10 -10 -5 -10 6 0 17 5 25 10 8 5 11 10 5 10 -5 0
-17 -5 -25 -10z"/>
<path d="M1342 3740 c0 -19 2 -27 5 -17 2 9 2 25 0 35 -3 9 -5 1 -5 -18z"/>
<path d="M1333 3640 c0 -25 2 -35 4 -22 2 12 2 32 0 45 -2 12 -4 2 -4 -23z"/>
<path d="M794 3585 c0 -19 3 -32 5 -29 8 7 9 54 2 59 -4 2 -7 -12 -7 -30z"/>
<path d="M3410 3566 c0 -2 7 -7 16 -10 8 -3 12 -2 9 4 -6 10 -25 14 -25 6z"/>
<path d="M1322 3530 c0 -19 2 -27 5 -17 2 9 2 25 0 35 -3 9 -5 1 -5 -18z"/>
<path d="M936 3455 c-3 -8 -1 -15 4 -15 6 0 10 7 10 15 0 8 -2 15 -4 15 -2 0
-6 -7 -10 -15z"/>
<path d="M892 3440 c0 -14 2 -19 5 -12 2 6 2 18 0 25 -3 6 -5 1 -5 -13z"/>
<path d="M798 3443 c6 -2 18 -2 25 0 6 3 1 5 -13 5 -14 0 -19 -2 -12 -5z"/>
<path d="M908 3416 c-22 -16 -23 -26 -3 -26 8 0 15 6 15 14 0 8 6 17 13 19 6
3 8 6 2 6 -5 0 -18 -6 -27 -13z"/>
<path d="M940 3340 c6 -11 16 -20 23 -19 9 0 9 2 0 6 -7 2 -13 11 -13 19 0 8
-5 14 -10 14 -7 0 -7 -6 0 -20z"/>
<path d="M890 3252 c0 -28 5 -54 12 -58 7 -4 8 -3 4 5 -4 6 -2 18 4 26 9 11 9
15 1 15 -6 0 -11 9 -11 20 0 14 5 18 18 13 18 -7 17 -5 -10 16 -17 12 -18 9
-18 -37z"/>
<path d="M917 3199 c4 -13 8 -18 11 -10 2 7 -1 18 -6 23 -8 8 -9 4 -5 -13z"/>
<path d="M892 3114 c-26 -18 -30 -68 -8 -90 18 -17 36 -18 36 -2 0 6 -3 8 -7
5 -9 -10 -32 25 -33 51 0 12 5 23 10 23 6 1 15 2 20 3 10 1 15 14 8 22 -2 2
-14 -3 -26 -12z"/>
<path d="M910 3055 c7 -9 15 -13 17 -11 7 7 -7 26 -19 26 -6 0 -6 -6 2 -15z"/>
<path d="M937 3023 c-4 -3 -7 -11 -7 -17 0 -6 5 -5 12 2 6 6 9 14 7 17 -3 3
-9 2 -12 -2z"/>
<path d="M870 2294 c0 -16 -4 -23 -12 -18 -7 5 -8 3 -3 -5 5 -9 12 -7 26 8 23
24 24 41 4 41 -9 0 -15 -10 -15 -26z"/>
<path d="M6085 1870 c-3 -5 -3 -10 2 -10 4 0 1 -5 -7 -10 -13 -9 -13 -10 0
-10 13 0 13 -1 0 -10 -8 -5 -10 -10 -5 -10 6 0 17 5 25 10 13 9 13 10 0 10
-13 0 -13 1 0 10 11 7 11 10 2 10 -7 0 -10 5 -7 10 3 6 4 10 1 10 -3 0 -8 -4
-11 -10z"/>
<path d="M6047 1743 c-8 -17 -1 -37 13 -40 12 -4 12 -3 2 5 -11 7 -11 10 3 16
9 3 13 10 10 16 -7 12 -22 13 -28 3z"/>
<path d="M6045 1680 c3 -5 8 -10 11 -10 2 0 4 5 4 10 0 6 -5 10 -11 10 -5 0
-7 -4 -4 -10z"/>
<path d="M6085 1680 c3 -5 1 -10 -6 -10 -7 0 -10 -2 -7 -5 7 -8 38 5 38 16 0
5 -7 9 -16 9 -8 0 -12 -4 -9 -10z"/>
<path d="M6090 1626 c0 -8 -10 -22 -22 -31 l-23 -16 31 3 c26 2 30 6 30 30 0
15 -3 28 -8 28 -4 0 -8 -6 -8 -14z"/>
<path d="M5990 1566 c0 -22 26 -26 27 -5 1 11 -5 19 -13 19 -8 0 -14 -6 -14
-14z"/>
<path d="M6042 1561 c-11 -7 -10 -10 3 -15 20 -7 38 1 30 15 -7 11 -16 11 -33
0z"/>
<path d="M5785 409 c-41 -4 -15 -6 79 -7 76 0 137 1 135 3 -8 7 -154 10 -214
4z"/>
<path d="M6045 410 c3 -5 12 -7 20 -3 21 7 19 13 -6 13 -11 0 -18 -4 -14 -10z"/>
<path d="M6097 413 c-3 -5 65 -7 151 -5 251 4 273 8 55 10 -111 1 -204 -1
-206 -5z"/>
<path d="M533 403 c97 -2 257 -2 355 0 97 1 17 2 -178 2 -195 0 -275 -1 -177
-2z"/>
<path d="M1163 403 c15 -2 37 -2 50 0 12 2 0 4 -28 4 -27 0 -38 -2 -22 -4z"/>
<path d="M1463 403 c120 -2 314 -2 430 0 117 1 19 2 -218 2 -236 0 -332 -1
-212 -2z"/>
<path d="M2118 403 c6 -2 18 -2 25 0 6 3 1 5 -13 5 -14 0 -19 -2 -12 -5z"/>
<path d="M2258 403 c7 -3 16 -2 19 1 4 3 -2 6 -13 5 -11 0 -14 -3 -6 -6z"/>
<path d="M2413 403 c15 -2 37 -2 50 0 12 2 0 4 -28 4 -27 0 -38 -2 -22 -4z"/>
<path d="M2498 403 c7 -3 16 -2 19 1 4 3 -2 6 -13 5 -11 0 -14 -3 -6 -6z"/>
<path d="M2708 403 c12 -2 32 -2 45 0 12 2 2 4 -23 4 -25 0 -35 -2 -22 -4z"/>
<path d="M2943 403 c48 -2 125 -2 170 0 45 1 6 3 -88 3 -93 0 -130 -2 -82 -3z"/>
<path d="M3903 403 c26 -2 68 -2 95 0 26 2 4 3 -48 3 -52 0 -74 -1 -47 -3z"/>
</g>
</svg>
